<svg width="485" height="397" viewBox="0 0 485 397" fill="none" xmlns="http://www.w3.org/2000/svg">
<path d="M40.2899 191.581C39.7992 191.582 39.3288 191.786 38.9819 192.147C38.635 192.509 38.4398 192.999 38.4393 193.511V393.012C38.4398 393.523 38.635 394.014 38.9819 394.375C39.3288 394.737 39.7992 394.941 40.2899 394.941H280.207C280.698 394.941 281.168 394.737 281.515 394.375C281.862 394.014 282.057 393.523 282.057 393.012V225.535C282.057 225.023 281.862 224.533 281.515 224.171C281.168 223.809 280.698 223.606 280.207 223.605H142.51C141.113 223.607 139.765 223.064 138.731 222.083L107.774 192.758C106.976 192 105.935 191.581 104.855 191.581H40.2899Z" fill="#3F3D56"/>
<path d="M151.093 165.801C150.793 165.618 150.436 165.566 150.099 165.657C149.763 165.748 149.475 165.974 149.299 166.287L78.2497 292.338C78.074 292.651 78.0244 293.023 78.1117 293.374C78.1991 293.725 78.4162 294.025 78.7156 294.209L176.116 353.884C176.416 354.067 176.773 354.119 177.109 354.028C177.446 353.937 177.734 353.71 177.91 353.398L248.959 227.346C249.135 227.034 249.184 226.661 249.097 226.311C249.01 225.96 248.792 225.66 248.493 225.476L151.093 165.801Z" fill="#E6E6E6"/>
<path d="M152.584 171.786C152.284 171.603 151.927 171.551 151.59 171.642C151.254 171.733 150.966 171.959 150.79 172.272L83.9903 290.784C83.8146 291.096 83.765 291.469 83.8523 291.82C83.9397 292.17 84.1568 292.47 84.4562 292.654L174.625 347.899C174.925 348.082 175.282 348.134 175.618 348.043C175.955 347.951 176.243 347.725 176.419 347.413L243.218 228.901C243.394 228.588 243.444 228.216 243.356 227.865C243.269 227.514 243.052 227.214 242.752 227.03L152.584 171.786Z" fill="white"/>
<path d="M135.547 230.33L201.987 271.036C202.21 271.172 202.456 271.262 202.712 271.299C202.967 271.336 203.227 271.321 203.477 271.253C203.727 271.185 203.962 271.067 204.168 270.905C204.374 270.742 204.547 270.54 204.678 270.307C204.809 270.075 204.895 269.819 204.93 269.552C204.966 269.286 204.951 269.014 204.886 268.754C204.821 268.493 204.708 268.249 204.552 268.034C204.396 267.819 204.202 267.638 203.979 267.502L137.539 226.795C137.316 226.659 137.07 226.569 136.814 226.531C136.558 226.494 136.298 226.509 136.048 226.577C135.797 226.644 135.562 226.763 135.356 226.925C135.15 227.087 134.976 227.29 134.845 227.523C134.714 227.755 134.629 228.012 134.593 228.279C134.557 228.545 134.573 228.817 134.638 229.078C134.703 229.338 134.817 229.583 134.973 229.798C135.129 230.013 135.324 230.194 135.547 230.33V230.33Z" fill="#E6E6E6"/>
<path d="M153.535 197.054L197.614 224.059C198.235 224.44 199.184 223.957 199.734 222.981C200.284 222.005 200.227 220.906 199.606 220.525L155.527 193.519C154.906 193.139 153.957 193.622 153.407 194.598C152.857 195.573 152.914 196.673 153.535 197.054Z" fill="#E6E6E6"/>
<path d="M147.825 207.185L191.903 234.191C192.524 234.571 193.474 234.088 194.024 233.113C194.574 232.137 194.517 231.037 193.896 230.657L149.817 203.651C149.196 203.27 148.247 203.753 147.697 204.729C147.146 205.705 147.204 206.804 147.825 207.185Z" fill="#E6E6E6"/>
<path d="M129.106 241.757L195.546 282.463C195.996 282.738 196.531 282.816 197.036 282.679C197.54 282.542 197.972 282.202 198.236 281.734C198.5 281.265 198.574 280.707 198.444 280.181C198.313 279.655 197.987 279.205 197.538 278.929L131.098 238.223C130.649 237.948 130.113 237.87 129.608 238.007C129.104 238.144 128.673 238.484 128.409 238.952C128.145 239.421 128.07 239.979 128.2 240.505C128.331 241.031 128.657 241.481 129.106 241.757Z" fill="#E6E6E6"/>
<path d="M122.665 253.184L189.105 293.89C189.555 294.165 190.091 294.243 190.595 294.106C191.099 293.969 191.531 293.629 191.795 293.161C192.059 292.692 192.134 292.134 192.003 291.608C191.872 291.082 191.546 290.632 191.097 290.356L124.657 249.65C124.435 249.513 124.188 249.424 123.933 249.387C123.677 249.35 123.417 249.365 123.167 249.433C122.917 249.501 122.682 249.619 122.476 249.781C122.27 249.943 122.097 250.146 121.966 250.378C121.835 250.61 121.75 250.867 121.714 251.134C121.678 251.4 121.693 251.672 121.758 251.932C121.823 252.193 121.937 252.437 122.092 252.652C122.248 252.867 122.443 253.048 122.665 253.184V253.184Z" fill="#E6E6E6"/>
<path d="M116.224 264.611L182.664 305.317C183.114 305.592 183.649 305.669 184.153 305.532C184.658 305.395 185.089 305.055 185.353 304.587C185.617 304.119 185.692 303.561 185.561 303.035C185.43 302.509 185.105 302.059 184.656 301.783L118.216 261.077C117.994 260.94 117.747 260.851 117.492 260.814C117.236 260.777 116.976 260.792 116.726 260.86C116.476 260.928 116.241 261.046 116.035 261.208C115.829 261.371 115.656 261.573 115.525 261.805C115.394 262.038 115.309 262.294 115.273 262.561C115.237 262.827 115.253 263.099 115.317 263.359C115.382 263.62 115.496 263.864 115.651 264.079C115.807 264.294 116.002 264.475 116.224 264.611V264.611Z" fill="#E6E6E6"/>
<path d="M109.783 276.038L176.224 316.745C176.446 316.881 176.692 316.97 176.948 317.007C177.204 317.045 177.464 317.029 177.714 316.961C177.964 316.894 178.198 316.775 178.404 316.613C178.61 316.451 178.784 316.248 178.914 316.016C179.045 315.784 179.131 315.527 179.167 315.261C179.202 314.994 179.187 314.723 179.122 314.462C179.057 314.202 178.944 313.957 178.788 313.742C178.633 313.527 178.438 313.347 178.216 313.21L111.775 272.504C111.326 272.229 110.79 272.151 110.285 272.287C109.78 272.424 109.349 272.764 109.084 273.233C108.82 273.701 108.745 274.26 108.877 274.786C109.008 275.312 109.334 275.763 109.783 276.038Z" fill="#E6E6E6"/>
<path d="M103.342 287.465L169.783 328.172C170.232 328.447 170.768 328.525 171.273 328.388C171.777 328.252 172.209 327.912 172.474 327.443C172.738 326.974 172.812 326.416 172.681 325.889C172.55 325.363 172.224 324.913 171.775 324.638L105.334 283.931C105.112 283.795 104.866 283.705 104.61 283.668C104.354 283.631 104.094 283.647 103.844 283.714C103.594 283.782 103.36 283.9 103.154 284.063C102.948 284.225 102.774 284.428 102.644 284.66C102.513 284.892 102.427 285.148 102.391 285.415C102.356 285.682 102.371 285.953 102.436 286.213C102.501 286.474 102.614 286.719 102.77 286.933C102.925 287.148 103.12 287.329 103.342 287.465Z" fill="#E6E6E6"/>
<path d="M211.389 247.89C217.107 247.89 221.743 243.057 221.743 237.095C221.743 231.134 217.107 226.301 211.389 226.301C205.671 226.301 201.035 231.134 201.035 237.095C201.035 243.057 205.671 247.89 211.389 247.89Z" fill="#E6E6E6"/>
<path d="M68.4302 202.102C68.0903 202.028 67.7357 202.096 67.4443 202.294C67.1528 202.491 66.9484 202.8 66.8757 203.155L37.7018 346.162C37.6299 346.516 37.6958 346.886 37.885 347.19C38.0742 347.493 38.3713 347.707 38.7111 347.782L149.213 372.286C149.553 372.361 149.907 372.292 150.199 372.095C150.49 371.898 150.694 371.588 150.767 371.234L179.941 228.227C180.013 227.872 179.947 227.503 179.758 227.199C179.569 226.895 179.272 226.682 178.932 226.606L68.4302 202.102Z" fill="#E6E6E6"/>
<path d="M71.6598 207.289C71.3199 207.214 70.9653 207.283 70.6739 207.48C70.3824 207.677 70.1779 207.987 70.1052 208.341L42.6763 342.794C42.6045 343.149 42.6703 343.519 42.8595 343.822C43.0488 344.126 43.3458 344.339 43.6856 344.415L145.983 367.1C146.323 367.175 146.677 367.106 146.969 366.909C147.26 366.711 147.465 366.402 147.538 366.047L174.966 231.594C175.038 231.24 174.972 230.87 174.783 230.566C174.594 230.262 174.297 230.049 173.957 229.973L71.6598 207.289Z" fill="white"/>
<path d="M148.63 285.16L73.2528 268.445C72.9999 268.39 72.76 268.283 72.5468 268.131C72.3336 267.978 72.1513 267.783 72.0104 267.558C71.8695 267.332 71.7726 267.079 71.7254 266.814C71.6783 266.549 71.6817 266.277 71.7354 266.014C71.7892 265.75 71.8923 265.5 72.0388 265.278C72.1853 265.056 72.3724 264.866 72.5893 264.72C72.8062 264.573 73.0487 264.473 73.3029 264.424C73.5571 264.375 73.818 264.379 74.0707 264.436L149.448 281.151C149.701 281.206 149.941 281.313 150.154 281.466C150.367 281.618 150.549 281.813 150.69 282.039C150.831 282.264 150.928 282.517 150.975 282.782C151.022 283.047 151.019 283.319 150.965 283.583C150.911 283.846 150.808 284.096 150.662 284.318C150.515 284.54 150.328 284.73 150.111 284.876C149.894 285.023 149.652 285.123 149.398 285.172C149.143 285.221 148.883 285.217 148.63 285.16Z" fill="#E6E6E6"/>
<path d="M156.898 247.948L106.89 236.859C106.186 236.703 105.798 235.679 106.024 234.571C106.249 233.464 107.004 232.693 107.708 232.85L157.716 243.939C158.42 244.095 158.808 245.119 158.582 246.226C158.356 247.333 157.602 248.104 156.898 247.948Z" fill="#E6E6E6"/>
<path d="M154.553 259.442L104.545 248.353C103.841 248.197 103.453 247.173 103.679 246.065C103.905 244.958 104.659 244.187 105.363 244.344L155.371 255.433C156.075 255.589 156.463 256.613 156.238 257.72C156.012 258.828 155.257 259.598 154.553 259.442Z" fill="#E6E6E6"/>
<path d="M145.985 298.124L70.608 281.41C70.0989 281.296 69.6538 280.976 69.3706 280.52C69.0874 280.065 68.9892 279.51 69.0976 278.979C69.2059 278.448 69.5119 277.984 69.9485 277.688C70.385 277.392 70.9164 277.288 71.426 277.4L146.803 294.115C147.056 294.171 147.295 294.278 147.508 294.431C147.721 294.583 147.902 294.778 148.043 295.004C148.184 295.229 148.28 295.482 148.327 295.746C148.374 296.011 148.371 296.283 148.317 296.546C148.263 296.809 148.16 297.059 148.014 297.281C147.868 297.503 147.681 297.692 147.465 297.839C147.248 297.985 147.006 298.086 146.752 298.135C146.498 298.184 146.238 298.18 145.985 298.124Z" fill="#E6E6E6"/>
<path d="M143.34 311.089L67.9633 294.374C67.4541 294.26 67.0091 293.94 66.7259 293.484C66.4427 293.029 66.3445 292.475 66.4528 291.943C66.5612 291.412 66.8672 290.948 67.3037 290.652C67.7403 290.356 68.2717 290.252 68.7813 290.364L144.158 307.079C144.411 307.135 144.65 307.242 144.863 307.395C145.076 307.547 145.258 307.742 145.398 307.968C145.539 308.193 145.635 308.446 145.682 308.711C145.729 308.975 145.726 309.247 145.672 309.51C145.618 309.773 145.516 310.023 145.369 310.245C145.223 310.467 145.036 310.656 144.82 310.803C144.603 310.949 144.361 311.05 144.107 311.099C143.853 311.148 143.593 311.145 143.34 311.089Z" fill="#E6E6E6"/>
<path d="M140.696 324.053L65.3186 307.338C65.0657 307.282 64.8258 307.175 64.6126 307.023C64.3994 306.871 64.2171 306.676 64.0762 306.45C63.9353 306.224 63.8385 305.972 63.7913 305.707C63.7441 305.442 63.7475 305.17 63.8013 304.906C63.855 304.643 63.9581 304.393 64.1046 304.171C64.2511 303.949 64.4382 303.759 64.6551 303.612C64.872 303.466 65.1145 303.365 65.3687 303.317C65.6229 303.268 65.8838 303.272 66.1365 303.329L141.514 320.043C142.023 320.157 142.468 320.477 142.751 320.933C143.034 321.388 143.132 321.943 143.024 322.474C142.916 323.005 142.61 323.469 142.173 323.765C141.737 324.061 141.205 324.165 140.696 324.053Z" fill="#E6E6E6"/>
<path d="M138.051 337.017L62.6738 320.302C62.4209 320.247 62.181 320.14 61.9678 319.987C61.7547 319.835 61.5724 319.64 61.4315 319.414C61.2905 319.188 61.1937 318.936 61.1465 318.671C61.0993 318.406 61.1027 318.134 61.1565 317.87C61.2103 317.607 61.3134 317.357 61.4599 317.135C61.6064 316.913 61.7935 316.723 62.0104 316.577C62.2273 316.43 62.4698 316.33 62.724 316.281C62.9782 316.232 63.2391 316.236 63.4918 316.293L138.869 333.007C139.122 333.063 139.362 333.17 139.575 333.322C139.788 333.475 139.97 333.669 140.111 333.895C140.252 334.121 140.349 334.374 140.396 334.639C140.443 334.904 140.44 335.176 140.386 335.439C140.332 335.703 140.229 335.953 140.083 336.175C139.936 336.397 139.749 336.587 139.532 336.733C139.315 336.88 139.073 336.98 138.819 337.029C138.564 337.077 138.304 337.073 138.051 337.017Z" fill="#E6E6E6"/>
<path d="M135.406 349.981L60.0291 333.266C59.5199 333.152 59.0749 332.833 58.7917 332.377C58.5085 331.921 58.4103 331.367 58.5186 330.836C58.627 330.305 58.933 329.84 59.3696 329.544C59.8061 329.248 60.3375 329.145 60.8471 329.257L136.224 345.972C136.477 346.027 136.717 346.134 136.93 346.287C137.143 346.439 137.326 346.634 137.466 346.859C137.607 347.085 137.704 347.338 137.751 347.603C137.799 347.868 137.795 348.14 137.741 348.403C137.688 348.667 137.585 348.917 137.438 349.139C137.292 349.361 137.104 349.551 136.888 349.697C136.671 349.844 136.428 349.944 136.174 349.993C135.92 350.042 135.659 350.038 135.406 349.981Z" fill="#E6E6E6"/>
<path d="M88.2871 247.58C94.0053 247.58 98.6408 242.747 98.6408 236.785C98.6408 230.823 94.0053 225.99 88.2871 225.99C82.5689 225.99 77.9333 230.823 77.9333 236.785C77.9333 242.747 82.5689 247.58 88.2871 247.58Z" fill="#E6E6E6"/>
<path d="M304.473 209.754C305.383 210.572 306.457 211.168 307.616 211.497C308.775 211.826 309.99 211.881 311.173 211.657C312.355 211.434 313.474 210.937 314.448 210.203C315.422 209.47 316.226 208.519 316.802 207.419L325.295 191.196L318.872 185.645L304.871 196.705C303.914 197.461 303.131 198.43 302.58 199.542C302.029 200.653 301.723 201.879 301.685 203.13C301.647 204.381 301.877 205.625 302.36 206.771C302.842 207.917 303.564 208.936 304.473 209.754Z" fill="#FFB9B9"/>
<path d="M314.417 187.133L324.335 195.472L378.404 151.776L375.205 75.7239C372.164 78.2602 369.636 81.3999 367.766 84.9615C365.897 88.523 364.723 92.4356 364.313 96.4731L355.049 139.434L314.417 187.133Z" fill="#0045FF"/>
<path d="M418.716 363.92H432.154L433.433 241.17H406.559L418.716 363.92Z" fill="#FFB9B9"/>
<path d="M385.443 370.591H398.88L400.16 239.835L373.285 238.501L385.443 370.591Z" fill="#FFB9B9"/>
<path d="M368.166 251.844L401.44 253.178L402.72 245.84L404.639 255.847L435.353 254.512C435.348 222.066 434.684 186.214 438.552 173.791L367.527 181.129C361.933 206.268 361.244 230.083 368.166 251.844Z" fill="#2F2E41"/>
<path d="M426.454 395.942C433.637 395.942 439.268 398.85 438.614 391.392L436.754 366.176C436.718 365.108 436.385 364.074 435.795 363.2C435.206 362.325 434.385 361.649 433.433 361.252C428.314 354.996 423.195 354.328 418.077 359.25C416.412 361.419 415.442 364.078 415.302 366.852L414.26 391.895C413.9 399.174 419.463 395.942 426.454 395.942Z" fill="#2F2E41"/>
<path d="M360.862 396.296L395.013 395.353C396.427 395.148 397.718 394.406 398.639 393.269C399.56 392.132 400.046 390.68 400.003 389.192L400.646 371.793C400.687 370.936 400.406 370.096 399.862 369.451C399.318 368.807 398.554 368.41 397.733 368.344L392.482 367.923C391.859 361.966 388.38 360.52 383.523 361.252L368.166 379.264L358.047 382.218C356.424 382.692 355.024 383.767 354.108 385.242C353.192 386.717 352.825 388.489 353.075 390.227C353.345 392.103 354.314 393.793 355.772 394.93C357.23 396.066 359.059 396.557 360.862 396.296Z" fill="#2F2E41"/>
<path d="M400.16 50.3733C411.115 50.3733 419.996 41.1142 419.996 29.6925C419.996 18.2709 411.115 9.01178 400.16 9.01178C389.205 9.01178 380.324 18.2709 380.324 29.6925C380.324 41.1142 389.205 50.3733 400.16 50.3733Z" fill="#FFB9B9"/>
<path d="M389.922 66.3842L423.835 56.3774C416.251 53.3013 413.323 47.9357 414.877 40.3665H392.482C395.361 51.7691 395.372 61.0742 389.922 66.3842Z" fill="#FFB9B9"/>
<path d="M365.607 189.802C384.746 192.352 402.38 184.626 419.036 178.794C426.556 176.162 434.131 178.91 441.112 174.458C438.093 143.459 441.024 108.541 447.436 71.3301C447.802 69.2236 447.42 67.0502 446.362 65.2155C445.304 63.3808 443.642 62.0101 441.686 61.359L420.636 54.376L402.08 61.0472L392.482 63.0486L372.717 76.9715C371.564 77.7837 370.66 78.9259 370.114 80.261C369.568 81.596 369.404 83.0669 369.641 84.497C375.579 119.492 374.203 155.412 365.607 189.802Z" fill="#0045FF"/>
<path d="M419.356 179.127L425.755 196.472L432.154 186.466L423.835 177.793L419.356 179.127Z" fill="#FFB9B9"/>
<path d="M381.125 22.3185C388.838 17.1578 396.529 15.4579 404.201 16.9099C406.535 17.364 408.754 18.313 410.721 19.6982C412.688 21.0835 414.362 22.8753 415.637 24.9627C416.913 27.05 417.763 29.3884 418.136 31.8326C418.509 34.2769 418.396 36.775 417.805 39.1719C417.789 39.2365 417.773 39.3011 417.757 39.3658L418.903 37.1192C421.944 31.1613 422.982 24.3127 421.85 17.6677C420.982 12.5649 418.367 7.96397 414.491 4.71841C410.616 1.47285 405.743 -0.196958 400.777 0.018786L396.46 0.206241C391.495 0.421953 386.77 2.49415 383.149 6.04381C379.529 9.59347 377.255 14.3834 376.743 19.5374C376.689 20.094 376.787 20.6552 377.026 21.1561C377.265 21.657 377.635 22.0772 378.094 22.3681C378.552 22.659 379.08 22.8087 379.616 22.7999C380.153 22.7911 380.676 22.6242 381.125 22.3185Z" fill="#2F2E41"/>
<path d="M422.556 177.793L431.514 189.802L462.868 141.102L460.156 91.6258C459.81 85.3243 457.942 79.2162 454.724 73.8699C451.506 68.5235 447.044 64.1125 441.752 61.0472L442.392 137.099L422.556 177.793Z" fill="#0045FF"/>
<path d="M220.304 134.726C220.01 134.532 219.655 134.468 219.316 134.547C218.977 134.626 218.682 134.842 218.495 135.148L143.397 258.622C143.211 258.928 143.15 259.299 143.226 259.652C143.301 260.006 143.509 260.313 143.802 260.508L239.21 323.584C239.504 323.777 239.859 323.842 240.198 323.762C240.538 323.683 240.833 323.467 241.019 323.161L316.117 199.688C316.303 199.381 316.365 199.011 316.289 198.657C316.213 198.304 316.006 197.996 315.712 197.802L220.304 134.726Z" fill="#0045FF"/>
<path d="M221.6 140.76C221.306 140.566 220.951 140.502 220.612 140.581C220.273 140.66 219.978 140.877 219.791 141.182L149.185 257.271C148.999 257.577 148.937 257.947 149.013 258.301C149.089 258.654 149.297 258.962 149.59 259.156L237.915 317.549C238.208 317.743 238.564 317.807 238.903 317.728C239.242 317.649 239.537 317.433 239.723 317.127L310.33 201.039C310.515 200.733 310.577 200.362 310.501 200.009C310.425 199.655 310.218 199.347 309.925 199.153L221.6 140.76Z" fill="white"/>
<path d="M267.755 241.696L202.673 198.669C202.455 198.525 202.267 198.338 202.118 198.118C201.97 197.898 201.864 197.649 201.808 197.386C201.751 197.124 201.745 196.852 201.789 196.587C201.834 196.322 201.928 196.068 202.066 195.841C202.204 195.614 202.384 195.417 202.595 195.262C202.806 195.107 203.045 194.997 203.297 194.938C203.549 194.88 203.809 194.873 204.064 194.919C204.318 194.965 204.561 195.063 204.779 195.208L269.86 238.234C270.078 238.378 270.267 238.566 270.416 238.786C270.564 239.006 270.67 239.254 270.726 239.517C270.782 239.78 270.789 240.051 270.744 240.317C270.7 240.582 270.606 240.835 270.468 241.063C270.33 241.29 270.15 241.487 269.939 241.641C269.727 241.796 269.489 241.906 269.237 241.965C268.985 242.024 268.725 242.03 268.47 241.984C268.216 241.938 267.973 241.84 267.755 241.696Z" fill="#0045FF"/>
<path d="M287.93 209.812L244.753 181.267C244.145 180.865 244.123 179.764 244.705 178.808C245.286 177.852 246.251 177.403 246.859 177.805L290.036 206.35C290.644 206.752 290.666 207.853 290.085 208.809C289.503 209.765 288.539 210.214 287.93 209.812Z" fill="#0045FF"/>
<path d="M281.895 219.736L238.718 191.191C238.109 190.789 238.087 189.688 238.669 188.732C239.25 187.776 240.215 187.327 240.823 187.729L284 216.274C284.609 216.676 284.63 217.777 284.049 218.733C283.467 219.689 282.503 220.138 281.895 219.736Z" fill="#0045FF"/>
<path d="M260.947 252.889L195.865 209.863C195.426 209.571 195.115 209.11 195.002 208.58C194.888 208.05 194.981 207.494 195.26 207.036C195.539 206.577 195.981 206.253 196.49 206.134C196.998 206.015 197.531 206.111 197.971 206.401L263.052 249.427C263.27 249.571 263.459 249.759 263.608 249.979C263.756 250.199 263.862 250.448 263.918 250.71C263.974 250.973 263.981 251.245 263.936 251.51C263.892 251.775 263.798 252.029 263.66 252.256C263.522 252.483 263.342 252.68 263.131 252.835C262.919 252.99 262.681 253.1 262.429 253.158C262.177 253.217 261.917 253.224 261.662 253.178C261.408 253.131 261.165 253.033 260.947 252.889H260.947Z" fill="#0045FF"/>
<path d="M254.139 264.083L189.057 221.056C188.618 220.765 188.307 220.303 188.194 219.773C188.08 219.243 188.173 218.688 188.452 218.229C188.731 217.771 189.173 217.446 189.682 217.327C190.19 217.208 190.723 217.304 191.163 217.594L256.244 260.621C256.463 260.765 256.652 260.952 256.801 261.173C256.95 261.393 257.055 261.641 257.112 261.904C257.169 262.167 257.175 262.439 257.131 262.704C257.086 262.97 256.992 263.223 256.854 263.451C256.716 263.678 256.536 263.875 256.324 264.03C256.113 264.185 255.874 264.295 255.622 264.354C255.37 264.412 255.109 264.419 254.855 264.372C254.6 264.326 254.357 264.227 254.139 264.083Z" fill="#0045FF"/>
<path d="M247.331 275.276L182.249 232.25C182.031 232.106 181.842 231.918 181.693 231.698C181.544 231.478 181.439 231.229 181.382 230.967C181.325 230.704 181.319 230.432 181.363 230.166C181.407 229.901 181.501 229.647 181.64 229.42C181.778 229.192 181.958 228.995 182.17 228.84C182.381 228.686 182.62 228.576 182.872 228.517C183.124 228.458 183.385 228.452 183.639 228.498C183.894 228.545 184.137 228.643 184.355 228.788L249.437 271.814C249.876 272.106 250.187 272.567 250.3 273.097C250.414 273.627 250.321 274.183 250.042 274.641C249.763 275.1 249.321 275.425 248.812 275.544C248.304 275.663 247.771 275.566 247.331 275.276Z" fill="#0045FF"/>
<path d="M240.523 286.47L175.441 243.443C175.001 243.152 174.69 242.691 174.576 242.16C174.462 241.63 174.555 241.074 174.834 240.615C175.113 240.156 175.556 239.831 176.065 239.712C176.574 239.593 177.107 239.69 177.547 239.981L242.629 283.008C243.068 283.299 243.379 283.761 243.492 284.291C243.606 284.821 243.513 285.376 243.234 285.835C242.955 286.293 242.513 286.618 242.004 286.737C241.496 286.856 240.963 286.76 240.523 286.47Z" fill="#0045FF"/>
<path d="M233.715 297.663L168.634 254.637C168.416 254.492 168.227 254.305 168.078 254.085C167.93 253.865 167.824 253.616 167.768 253.353C167.712 253.091 167.705 252.819 167.75 252.554C167.794 252.289 167.888 252.035 168.026 251.808C168.164 251.581 168.344 251.384 168.555 251.229C168.766 251.074 169.005 250.964 169.257 250.906C169.509 250.847 169.769 250.84 170.024 250.886C170.278 250.933 170.521 251.031 170.739 251.175L235.821 294.201C236.261 294.492 236.572 294.954 236.686 295.484C236.8 296.015 236.707 296.571 236.428 297.03C236.149 297.489 235.706 297.813 235.197 297.932C234.688 298.051 234.155 297.954 233.715 297.663Z" fill="#0045FF"/>
<path d="M227.339 185.241C233.057 185.241 237.692 180.408 237.692 174.446C237.692 168.484 233.057 163.651 227.339 163.651C221.62 163.651 216.985 168.484 216.985 174.446C216.985 180.408 221.62 185.241 227.339 185.241Z" fill="#0045FF"/>
<path d="M23.9831 243.981C23.7226 243.981 23.465 244.038 23.2272 244.149C22.9894 244.26 22.7767 244.422 22.6031 244.625C22.4295 244.827 22.2989 245.066 22.2198 245.325C22.1407 245.583 22.1149 245.857 22.1441 246.126L38.1862 394.562C38.2369 395.034 38.4525 395.469 38.7918 395.785C39.1311 396.101 39.5702 396.276 40.0252 396.276H280.471C280.927 396.276 281.366 396.101 281.705 395.785C282.044 395.469 282.26 395.034 282.311 394.562L298.352 246.126C298.382 245.857 298.356 245.583 298.277 245.325C298.198 245.066 298.067 244.827 297.894 244.625C297.721 244.421 297.508 244.258 297.271 244.147C297.033 244.036 296.775 243.98 296.514 243.981H23.9831Z" fill="#E6E6E6"/>
<path d="M45.8578 268.911L122.92 268.476C123.441 268.472 123.939 268.253 124.304 267.867C124.67 267.48 124.874 266.958 124.872 266.415C124.869 265.872 124.659 265.353 124.289 264.971C123.92 264.588 123.419 264.375 122.899 264.377L45.8366 264.812C45.3152 264.815 44.8163 265.034 44.4496 265.42C44.0829 265.807 43.8785 266.329 43.8813 266.873C43.8842 267.416 44.094 267.936 44.4646 268.319C44.8353 268.701 45.3365 268.914 45.8578 268.911Z" fill="white"/>
<path d="M45.8578 281.586L91.5661 281.151C92.0868 281.147 92.5849 280.928 92.9508 280.542C93.3167 280.156 93.5206 279.634 93.5178 279.091C93.515 278.548 93.3056 278.028 92.9357 277.646C92.5658 277.264 92.0656 277.05 91.5448 277.052L45.8366 277.487C45.3152 277.49 44.8163 277.709 44.4496 278.095C44.0829 278.482 43.8785 279.004 43.8813 279.548C43.8842 280.092 44.094 280.612 44.4646 280.994C44.8353 281.376 45.3365 281.589 45.8578 281.586Z" fill="white"/>
<path d="M484.747 397H0V395.545H485L484.747 397Z" fill="#3F3D56"/>
</svg>
