<svg width="586" height="330" viewBox="0 0 586 330" fill="none" xmlns="http://www.w3.org/2000/svg">
<path d="M123.324 328.744H33.7978C33.7978 328.744 31.9831 301.964 42.7199 301.659C53.4567 301.355 52.2469 313.528 65.7064 296.79C79.166 280.053 95.4979 280.966 97.6151 290.856C99.7322 300.747 93.5322 308.659 104.874 306.224C116.216 303.79 132.549 310.18 123.324 328.744Z" fill="#E6E6E6"/>
<path d="M77.0501 328.75L76.7476 328.738C77.4525 311.107 81.1221 299.78 84.0772 293.379C87.2851 286.432 90.3765 283.619 90.4077 283.592L90.609 283.819C90.5784 283.847 87.5233 286.631 84.3408 293.532C81.4022 299.903 77.7524 311.185 77.0501 328.75Z" fill="white"/>
<path d="M109.452 328.786L109.161 328.701C111.413 321.228 115.471 314.434 120.973 308.928L121.177 309.153C115.715 314.622 111.687 321.367 109.452 328.786Z" fill="white"/>
<path d="M47.8992 328.765L47.5993 328.723C48.5755 322.113 47.5427 315.36 44.6365 309.351C43.4452 306.83 41.8681 304.514 39.9628 302.485L40.1723 302.265C42.1034 304.318 43.7022 306.664 44.9103 309.215C47.8427 315.28 48.8845 322.094 47.8992 328.765Z" fill="white"/>
<path d="M135.474 329.151H24.1422L24.1168 328.771C24.0531 327.828 22.6325 305.561 29.8029 297.616C30.5143 296.777 31.3925 296.097 32.3809 295.619C33.3693 295.142 34.4461 294.878 35.5419 294.845C40.2156 294.711 43.1529 296.473 45.5223 297.886C49.9878 300.552 52.9372 302.313 63.6632 288.975C75.2819 274.526 87.8188 271.417 95.0254 273.145C99.682 274.262 102.891 277.419 103.83 281.807C104.722 285.962 104.437 289.865 104.209 293.003C103.965 296.359 103.772 299.01 105.143 300.211C106.289 301.214 108.569 301.305 112.326 300.499C119.967 298.858 130.631 300.261 135.983 307.22C138.862 310.963 141.131 317.767 135.586 328.926L135.474 329.151ZM24.9019 328.336H134.973C139.105 319.902 139.234 312.776 135.343 307.718C130.433 301.335 120.132 299.655 112.495 301.295C108.412 302.171 105.981 302.027 104.611 300.826C102.936 299.357 103.141 296.527 103.401 292.946C103.625 289.861 103.904 286.021 103.039 281.981C102.168 277.912 99.1783 274.981 94.837 273.94C87.8601 272.265 75.6709 275.334 64.2916 289.489C53.1269 303.373 49.763 301.367 45.109 298.586C42.7104 297.155 39.9877 295.532 35.5642 295.658C34.5776 295.69 33.6086 295.929 32.7194 296.361C31.8303 296.792 31.0407 297.406 30.4015 298.163C23.9589 305.304 24.7446 325.326 24.9025 328.336H24.9019Z" fill="#2F2E41"/>
<path d="M499.247 329.603H389.589L389.568 328.985L384.332 178.312H504.503L499.247 329.603ZM390.819 328.321H498.017L503.185 179.593H385.65L390.819 328.321Z" fill="white"/>
<path d="M415.747 206.229H407.407V310.08H415.747V206.229Z" fill="white"/>
<path d="M448.588 206.229H440.247V310.08H448.588V206.229Z" fill="white"/>
<path d="M481.429 206.229H473.088V310.08H481.429V206.229Z" fill="white"/>
<path d="M574.185 222.557L573.647 222.215L437.438 135.607L449.253 116.796L449.792 117.138L586 203.745L574.185 222.557ZM439.195 135.209L573.789 220.789L584.243 204.145L449.65 118.563L439.195 135.209Z" fill="white"/>
<path d="M541.299 128.627C537.34 126.106 532.745 124.78 528.059 124.808C523.374 124.836 518.795 126.215 514.865 128.783C510.936 131.351 507.821 134.999 505.89 139.294C503.96 143.59 503.294 148.352 503.973 153.017L510.468 157.147C508.836 153.334 508.46 149.095 509.395 145.051C510.33 141.007 512.528 137.371 515.665 134.674C518.803 131.978 522.716 130.363 526.832 130.066C530.948 129.77 535.05 130.806 538.538 133.025C542.026 135.244 544.716 138.527 546.215 142.396C547.714 146.264 547.943 150.513 546.868 154.522C545.793 158.53 543.47 162.087 540.241 164.672C537.011 167.256 533.044 168.733 528.921 168.885L535.416 173.014C539.895 171.631 543.886 168.983 546.914 165.386C549.943 161.789 551.882 157.393 552.502 152.72C553.122 148.047 552.397 143.293 550.412 139.023C548.427 134.752 545.267 131.144 541.305 128.627H541.299Z" fill="white"/>
<path d="M578.802 328.719H0V330H578.802V328.719Z" fill="white"/>
<path d="M252.812 319.975H243.538L239.124 283.987H252.814L252.812 319.975Z" fill="#FEB8B8"/>
<path d="M225.654 328.639H254.798V317.309H236.758C233.813 317.309 230.989 318.486 228.906 320.581C226.824 322.677 225.654 325.518 225.654 328.482V328.639Z" fill="#2F2E41"/>
<path d="M249.552 264.208L255.949 270.964L284.89 249.356L275.45 239.386L249.552 264.208Z" fill="#FEB8B8"/>
<path d="M262.539 274.059L250.091 260.918L241.939 268.735L262.048 289.966L262.161 289.858C263.217 288.845 264.064 287.634 264.655 286.292C265.245 284.95 265.567 283.504 265.602 282.037C265.637 280.57 265.385 279.111 264.859 277.742C264.333 276.373 263.545 275.122 262.539 274.06V274.059Z" fill="#2F2E41"/>
<path d="M185.005 165.611C184.418 164.661 184.046 163.593 183.913 162.482C183.781 161.371 183.892 160.245 184.239 159.182C184.586 158.12 185.16 157.146 185.921 156.331C186.682 155.516 187.612 154.878 188.644 154.463L225.053 61.1003L239.245 69.6501L198.8 159.216C199.378 161.007 199.282 162.95 198.531 164.676C197.781 166.402 196.427 167.791 194.726 168.579C193.026 169.367 191.097 169.501 189.305 168.954C187.513 168.406 185.984 167.217 185.005 165.611Z" fill="#FEB8B8"/>
<path d="M323.2 172.303C322.09 172.223 321.012 171.899 320.04 171.355C319.069 170.81 318.228 170.058 317.576 169.15C316.925 168.243 316.479 167.203 316.271 166.104C316.062 165.005 316.096 163.873 316.369 162.789L262.657 78.3042L277.87 71.7694L326.158 157.313C327.941 157.893 329.451 159.112 330.4 160.738C331.349 162.364 331.672 164.284 331.307 166.133C330.942 167.983 329.914 169.633 328.42 170.771C326.925 171.909 325.068 172.455 323.2 172.305V172.303Z" fill="#FEB8B8"/>
<path d="M225.411 156.262L234.919 298.435L257.639 296.418L262.316 191.526L275.013 236.574L302.411 238.591L291.567 149.538L225.411 156.262Z" fill="#2F2E41"/>
<path d="M279.023 229.851L275.011 236.575L246.948 256.073L266.995 266.831C266.995 266.831 305.753 245.316 302.412 238.592L279.023 229.851Z" fill="#2F2E41"/>
<path d="M205.516 98.7402L213.425 76.3168C215.184 71.3275 217.91 66.7389 221.444 62.8165C224.977 58.8941 229.249 55.7158 234.012 53.4654C244.717 49.4974 256.359 48.8562 267.431 51.6248L270.309 52.3436C277.984 54.2153 285.174 57.7097 291.403 62.5943C296.277 66.4601 300.661 71.3549 301.052 76.6199C301.054 76.6311 301.057 76.642 301.061 76.6525C302.411 82.6056 303.079 113.534 303.079 113.534H291.172L293.055 155.22L292.903 154.919C292.903 154.919 224.226 167.995 224.226 161.271V118.239L222.818 102.658L205.516 98.7402Z" fill="#CCCCCC"/>
<path d="M269.619 45.796C280.13 45.796 288.65 37.2227 288.65 26.6471C288.65 16.0714 280.13 7.49811 269.619 7.49811C259.108 7.49811 250.587 16.0714 250.587 26.6471C250.587 37.2227 259.108 45.796 269.619 45.796Z" fill="#FEB8B8"/>
<path d="M272.469 18.0595L287.247 18.6554C289.106 18.6496 291.136 18.5836 292.552 17.374C294.685 15.5488 294.328 12.1045 293.186 9.5316C290.002 2.36764 282.901 -0.19888 275.102 0.0119001C267.304 0.22268 259.133 2.88209 254.933 9.49379C250.734 16.1055 249.599 24.4547 251.181 32.1376C253.01 28.231 255.825 24.8752 259.345 22.4053C262.865 19.9355 266.968 18.4379 271.244 18.0621L272.469 18.0595Z" fill="#2F2E41"/>
<path d="M360.222 205.363L306.734 167.645C306.237 167.293 305.899 166.757 305.794 166.155C305.689 165.553 305.825 164.934 306.173 164.432L348.154 104.163C348.504 103.663 349.036 103.322 349.635 103.217C350.233 103.111 350.849 103.248 351.347 103.598L404.835 141.316C405.332 141.668 405.67 142.203 405.775 142.805C405.881 143.408 405.745 144.027 405.397 144.528L363.416 204.796C363.067 205.297 362.534 205.638 361.936 205.744C361.337 205.85 360.721 205.713 360.222 205.363Z" fill="#0045FF"/>
<path d="M372.251 164.436L340.865 142.304C340.502 142.048 340.193 141.723 339.955 141.347C339.717 140.97 339.555 140.551 339.478 140.111C339.401 139.672 339.411 139.222 339.507 138.787C339.604 138.351 339.784 137.939 340.038 137.574C340.293 137.209 340.616 136.898 340.99 136.658C341.364 136.419 341.781 136.256 342.218 136.179C342.654 136.101 343.102 136.111 343.534 136.208C343.967 136.305 344.376 136.486 344.739 136.742L376.125 158.875C376.858 159.391 377.357 160.18 377.512 161.067C377.667 161.954 377.466 162.867 376.952 163.605C376.438 164.342 375.654 164.844 374.773 165C373.891 165.156 372.984 164.953 372.251 164.436Z" fill="white"/>
<path d="M365.048 174.777L333.662 152.645C333.299 152.389 332.989 152.064 332.751 151.688C332.512 151.311 332.35 150.892 332.273 150.452C332.196 150.013 332.206 149.562 332.302 149.127C332.398 148.691 332.578 148.279 332.833 147.913C333.087 147.548 333.411 147.237 333.785 146.997C334.159 146.758 334.577 146.595 335.014 146.518C335.45 146.44 335.898 146.451 336.331 146.548C336.764 146.645 337.173 146.827 337.536 147.083L368.922 169.215C369.654 169.733 370.152 170.521 370.307 171.408C370.461 172.295 370.26 173.207 369.746 173.944C369.233 174.681 368.45 175.183 367.569 175.339C366.687 175.495 365.781 175.293 365.048 174.777Z" fill="white"/>
<path d="M357.767 185.23L326.381 163.097C326.018 162.841 325.709 162.516 325.471 162.14C325.233 161.763 325.071 161.344 324.994 160.905C324.918 160.465 324.928 160.015 325.024 159.58C325.12 159.144 325.3 158.732 325.555 158.367C325.809 158.002 326.132 157.691 326.506 157.451C326.88 157.212 327.297 157.049 327.734 156.972C328.17 156.894 328.618 156.904 329.05 157.001C329.483 157.098 329.893 157.279 330.256 157.535L361.641 179.668C362.374 180.185 362.873 180.973 363.028 181.86C363.183 182.747 362.982 183.66 362.468 184.398C361.954 185.135 361.17 185.637 360.289 185.793C359.407 185.949 358.5 185.746 357.767 185.23V185.23Z" fill="white"/>
<path d="M372.163 143.98L360.006 135.407C359.643 135.152 359.333 134.826 359.095 134.45C358.856 134.074 358.694 133.654 358.617 133.214C358.54 132.775 358.55 132.325 358.646 131.889C358.742 131.453 358.922 131.041 359.177 130.676C359.431 130.31 359.755 129.999 360.129 129.759C360.503 129.52 360.921 129.357 361.358 129.28C361.794 129.203 362.242 129.213 362.675 129.31C363.108 129.407 363.517 129.589 363.88 129.845L376.037 138.418C376.77 138.935 377.269 139.724 377.424 140.611C377.579 141.498 377.377 142.41 376.864 143.148C376.35 143.885 375.566 144.387 374.684 144.543C373.803 144.7 372.896 144.497 372.163 143.98Z" fill="white"/>
<path d="M315.7 26.5C315.42 26.0267 315.23 25.53 315.13 25.01C315.03 24.4833 315.02 23.9633 315.1 23.45C315.18 22.9367 315.347 22.4467 315.6 21.98C315.853 21.5067 316.19 21.0833 316.61 20.71L317.15 21.05C317.25 21.1167 317.293 21.2 317.28 21.3C317.273 21.3933 317.243 21.4667 317.19 21.52C317.017 21.7333 316.867 21.9933 316.74 22.3C316.62 22.6067 316.543 22.9367 316.51 23.29C316.477 23.6367 316.493 23.9967 316.56 24.37C316.627 24.7433 316.763 25.1033 316.97 25.45C317.057 25.59 317.08 25.7167 317.04 25.83C317.007 25.9367 316.927 26.0167 316.8 26.07L315.7 26.5ZM318.74 26.5C318.46 26.0267 318.27 25.53 318.17 25.01C318.07 24.4833 318.06 23.9633 318.14 23.45C318.22 22.9367 318.387 22.4467 318.64 21.98C318.893 21.5067 319.23 21.0833 319.65 20.71L320.19 21.05C320.29 21.1167 320.333 21.2 320.32 21.3C320.313 21.3933 320.283 21.4667 320.23 21.52C320.057 21.7333 319.907 21.9933 319.78 22.3C319.66 22.6067 319.583 22.9367 319.55 23.29C319.517 23.6367 319.533 23.9967 319.6 24.37C319.667 24.7433 319.803 25.1033 320.01 25.45C320.097 25.59 320.12 25.7167 320.08 25.83C320.047 25.9367 319.967 26.0167 319.84 26.07L318.74 26.5ZM336.375 28.84C336.375 29.9133 336.205 30.9 335.865 31.8C335.525 32.6933 335.045 33.4633 334.425 34.11C333.805 34.7567 333.058 35.26 332.185 35.62C331.318 35.9733 330.358 36.15 329.305 36.15C328.251 36.15 327.291 35.9733 326.425 35.62C325.558 35.26 324.815 34.7567 324.195 34.11C323.575 33.4633 323.095 32.6933 322.755 31.8C322.415 30.9 322.245 29.9133 322.245 28.84C322.245 27.7667 322.415 26.7833 322.755 25.89C323.095 24.99 323.575 24.2167 324.195 23.57C324.815 22.9167 325.558 22.41 326.425 22.05C327.291 21.69 328.251 21.51 329.305 21.51C330.358 21.51 331.318 21.69 332.185 22.05C333.058 22.41 333.805 22.9167 334.425 23.57C335.045 24.2167 335.525 24.99 335.865 25.89C336.205 26.7833 336.375 27.7667 336.375 28.84ZM334.385 28.84C334.385 27.96 334.265 27.17 334.025 26.47C333.785 25.77 333.445 25.18 333.005 24.7C332.565 24.2133 332.031 23.84 331.405 23.58C330.778 23.32 330.078 23.19 329.305 23.19C328.538 23.19 327.841 23.32 327.215 23.58C326.588 23.84 326.051 24.2133 325.605 24.7C325.165 25.18 324.825 25.77 324.585 26.47C324.345 27.17 324.225 27.96 324.225 28.84C324.225 29.72 324.345 30.51 324.585 31.21C324.825 31.9033 325.165 32.4933 325.605 32.98C326.051 33.46 326.588 33.83 327.215 34.09C327.841 34.3433 328.538 34.47 329.305 34.47C330.078 34.47 330.778 34.3433 331.405 34.09C332.031 33.83 332.565 33.46 333.005 32.98C333.445 32.4933 333.785 31.9033 334.025 31.21C334.265 30.51 334.385 29.72 334.385 28.84ZM340.225 27.9C340.545 27.2067 340.938 26.6667 341.405 26.28C341.872 25.8867 342.442 25.69 343.115 25.69C343.328 25.69 343.532 25.7133 343.725 25.76C343.925 25.8067 344.102 25.88 344.255 25.98L344.125 27.31C344.085 27.4767 343.985 27.56 343.825 27.56C343.732 27.56 343.595 27.54 343.415 27.5C343.235 27.46 343.032 27.44 342.805 27.44C342.485 27.44 342.198 27.4867 341.945 27.58C341.698 27.6733 341.475 27.8133 341.275 28C341.082 28.18 340.905 28.4067 340.745 28.68C340.592 28.9467 340.452 29.2533 340.325 29.6V36H338.535V25.87H339.555C339.748 25.87 339.882 25.9067 339.955 25.98C340.028 26.0533 340.078 26.18 340.105 26.36L340.225 27.9ZM351.154 31.44C350.334 31.4667 349.634 31.5333 349.054 31.64C348.481 31.74 348.011 31.8733 347.644 32.04C347.284 32.2067 347.021 32.4033 346.854 32.63C346.694 32.8567 346.614 33.11 346.614 33.39C346.614 33.6567 346.657 33.8867 346.744 34.08C346.831 34.2733 346.947 34.4333 347.094 34.56C347.247 34.68 347.424 34.77 347.624 34.83C347.831 34.8833 348.051 34.91 348.284 34.91C348.597 34.91 348.884 34.88 349.144 34.82C349.404 34.7533 349.647 34.66 349.874 34.54C350.107 34.42 350.327 34.2767 350.534 34.11C350.747 33.9433 350.954 33.7533 351.154 33.54V31.44ZM345.404 27.3C345.964 26.76 346.567 26.3567 347.214 26.09C347.861 25.8233 348.577 25.69 349.364 25.69C349.931 25.69 350.434 25.7833 350.874 25.97C351.314 26.1567 351.684 26.4167 351.984 26.75C352.284 27.0833 352.511 27.4867 352.664 27.96C352.817 28.4333 352.894 28.9533 352.894 29.52V36H352.104C351.931 36 351.797 35.9733 351.704 35.92C351.611 35.86 351.537 35.7467 351.484 35.58L351.284 34.62C351.017 34.8667 350.757 35.0867 350.504 35.28C350.251 35.4667 349.984 35.6267 349.704 35.76C349.424 35.8867 349.124 35.9833 348.804 36.05C348.491 36.1233 348.141 36.16 347.754 36.16C347.361 36.16 346.991 36.1067 346.644 36C346.297 35.8867 345.994 35.72 345.734 35.5C345.481 35.28 345.277 35.0033 345.124 34.67C344.977 34.33 344.904 33.93 344.904 33.47C344.904 33.07 345.014 32.6867 345.234 32.32C345.454 31.9467 345.811 31.6167 346.304 31.33C346.797 31.0433 347.441 30.81 348.234 30.63C349.027 30.4433 350.001 30.3367 351.154 30.31V29.52C351.154 28.7333 350.984 28.14 350.644 27.74C350.304 27.3333 349.807 27.13 349.154 27.13C348.714 27.13 348.344 27.1867 348.044 27.3C347.751 27.4067 347.494 27.53 347.274 27.67C347.061 27.8033 346.874 27.9267 346.714 28.04C346.561 28.1467 346.407 28.2 346.254 28.2C346.134 28.2 346.031 28.17 345.944 28.11C345.857 28.0433 345.784 27.9633 345.724 27.87L345.404 27.3ZM357.285 27.34C357.505 27.0933 357.739 26.87 357.985 26.67C358.232 26.47 358.492 26.3 358.765 26.16C359.045 26.0133 359.339 25.9033 359.645 25.83C359.959 25.75 360.295 25.71 360.655 25.71C361.209 25.71 361.695 25.8033 362.115 25.99C362.542 26.17 362.895 26.43 363.175 26.77C363.462 27.1033 363.679 27.5067 363.825 27.98C363.972 28.4533 364.045 28.9767 364.045 29.55V36H362.255V29.55C362.255 28.7833 362.079 28.19 361.725 27.77C361.379 27.3433 360.849 27.13 360.135 27.13C359.609 27.13 359.115 27.2567 358.655 27.51C358.202 27.7633 357.782 28.1067 357.395 28.54V36H355.605V25.87H356.675C356.929 25.87 357.085 25.9933 357.145 26.24L357.285 27.34ZM370.288 31.05C370.648 31.05 370.964 31 371.238 30.9C371.511 30.8 371.741 30.66 371.928 30.48C372.114 30.3 372.254 30.0867 372.348 29.84C372.441 29.5867 372.488 29.31 372.488 29.01C372.488 28.39 372.298 27.8967 371.918 27.53C371.544 27.1633 371.001 26.98 370.288 26.98C369.568 26.98 369.018 27.1633 368.638 27.53C368.264 27.8967 368.078 28.39 368.078 29.01C368.078 29.31 368.124 29.5867 368.218 29.84C368.318 30.0867 368.461 30.3 368.648 30.48C368.834 30.66 369.064 30.8 369.338 30.9C369.611 31 369.928 31.05 370.288 31.05ZM373.498 36.55C373.498 36.3033 373.428 36.1033 373.288 35.95C373.148 35.7967 372.958 35.6767 372.718 35.59C372.484 35.5033 372.211 35.4433 371.898 35.41C371.584 35.37 371.251 35.34 370.898 35.32C370.551 35.3 370.198 35.28 369.838 35.26C369.478 35.24 369.131 35.2067 368.798 35.16C368.424 35.3333 368.118 35.5533 367.878 35.82C367.644 36.08 367.528 36.3867 367.528 36.74C367.528 36.9667 367.584 37.1767 367.698 37.37C367.818 37.57 367.998 37.74 368.238 37.88C368.478 38.0267 368.778 38.14 369.138 38.22C369.504 38.3067 369.934 38.35 370.428 38.35C370.908 38.35 371.338 38.3067 371.718 38.22C372.098 38.1333 372.418 38.01 372.678 37.85C372.944 37.69 373.148 37.5 373.288 37.28C373.428 37.06 373.498 36.8167 373.498 36.55ZM375.308 26.27V26.93C375.308 27.15 375.168 27.29 374.888 27.35L373.738 27.5C373.964 27.94 374.078 28.4267 374.078 28.96C374.078 29.4533 373.981 29.9033 373.788 30.31C373.601 30.71 373.341 31.0533 373.008 31.34C372.674 31.6267 372.274 31.8467 371.808 32C371.341 32.1533 370.834 32.23 370.288 32.23C369.814 32.23 369.368 32.1733 368.948 32.06C368.734 32.1933 368.571 32.3367 368.458 32.49C368.344 32.6367 368.288 32.7867 368.288 32.94C368.288 33.18 368.384 33.3633 368.578 33.49C368.778 33.61 369.038 33.6967 369.358 33.75C369.678 33.8033 370.041 33.8367 370.448 33.85C370.861 33.8633 371.281 33.8867 371.708 33.92C372.141 33.9467 372.561 33.9967 372.968 34.07C373.381 34.1433 373.748 34.2633 374.068 34.43C374.388 34.5967 374.644 34.8267 374.838 35.12C375.038 35.4133 375.138 35.7933 375.138 36.26C375.138 36.6933 375.028 37.1133 374.808 37.52C374.594 37.9267 374.284 38.2867 373.878 38.6C373.471 38.92 372.971 39.1733 372.378 39.36C371.791 39.5533 371.128 39.65 370.388 39.65C369.648 39.65 369.001 39.5767 368.448 39.43C367.894 39.2833 367.434 39.0867 367.068 38.84C366.701 38.5933 366.424 38.3067 366.238 37.98C366.058 37.66 365.968 37.3233 365.968 36.97C365.968 36.47 366.124 36.0467 366.438 35.7C366.751 35.3533 367.181 35.0767 367.728 34.87C367.428 34.7367 367.188 34.56 367.008 34.34C366.834 34.1133 366.748 33.81 366.748 33.43C366.748 33.2833 366.774 33.1333 366.828 32.98C366.881 32.82 366.961 32.6633 367.068 32.51C367.181 32.35 367.318 32.2 367.478 32.06C367.638 31.92 367.824 31.7967 368.038 31.69C367.538 31.41 367.148 31.04 366.868 30.58C366.588 30.1133 366.448 29.5733 366.448 28.96C366.448 28.4667 366.541 28.02 366.728 27.62C366.921 27.2133 367.188 26.87 367.528 26.59C367.868 26.3033 368.271 26.0833 368.738 25.93C369.211 25.7767 369.728 25.7 370.288 25.7C370.728 25.7 371.138 25.75 371.518 25.85C371.898 25.9433 372.244 26.0833 372.558 26.27H375.308ZM384.055 33.56C384.382 34 384.739 34.31 385.125 34.49C385.519 34.67 385.949 34.76 386.415 34.76C387.369 34.76 388.099 34.4233 388.605 33.75C389.112 33.0767 389.365 32.0733 389.365 30.74C389.365 29.5 389.139 28.59 388.685 28.01C388.239 27.4233 387.599 27.13 386.765 27.13C386.185 27.13 385.679 27.2633 385.245 27.53C384.819 27.7967 384.422 28.1733 384.055 28.66V33.56ZM384.055 27.33C384.482 26.8367 384.962 26.4433 385.495 26.15C386.035 25.8567 386.655 25.71 387.355 25.71C387.949 25.71 388.482 25.8233 388.955 26.05C389.435 26.2767 389.842 26.6067 390.175 27.04C390.509 27.4667 390.762 27.9867 390.935 28.6C391.115 29.2133 391.205 29.9033 391.205 30.67C391.205 31.49 391.105 32.2367 390.905 32.91C390.705 33.5833 390.415 34.16 390.035 34.64C389.662 35.1133 389.205 35.4833 388.665 35.75C388.125 36.01 387.519 36.14 386.845 36.14C386.179 36.14 385.615 36.0167 385.155 35.77C384.702 35.5167 384.305 35.16 383.965 34.7L383.875 35.62C383.822 35.8733 383.669 36 383.415 36H382.265V21.27H384.055V27.33ZM395.337 25.87V36H393.557V25.87H395.337ZM395.717 22.69C395.717 22.8633 395.68 23.0267 395.607 23.18C395.54 23.3267 395.447 23.46 395.327 23.58C395.214 23.6933 395.077 23.7833 394.917 23.85C394.764 23.9167 394.6 23.95 394.427 23.95C394.254 23.95 394.09 23.9167 393.937 23.85C393.79 23.7833 393.66 23.6933 393.547 23.58C393.434 23.46 393.344 23.3267 393.277 23.18C393.21 23.0267 393.177 22.8633 393.177 22.69C393.177 22.5167 393.21 22.3533 393.277 22.2C393.344 22.04 393.434 21.9033 393.547 21.79C393.66 21.67 393.79 21.5767 393.937 21.51C394.09 21.4433 394.254 21.41 394.427 21.41C394.6 21.41 394.764 21.4433 394.917 21.51C395.077 21.5767 395.214 21.67 395.327 21.79C395.447 21.9033 395.54 22.04 395.607 22.2C395.68 22.3533 395.717 22.5167 395.717 22.69ZM400.142 25.87V36.75C400.142 37.1567 400.088 37.5333 399.982 37.88C399.875 38.2333 399.705 38.54 399.472 38.8C399.238 39.06 398.938 39.2633 398.572 39.41C398.212 39.5633 397.778 39.64 397.272 39.64C397.058 39.64 396.862 39.6233 396.682 39.59C396.502 39.5567 396.322 39.5067 396.142 39.44L396.212 38.48C396.225 38.42 396.248 38.3733 396.282 38.34C396.308 38.3133 396.348 38.2967 396.402 38.29C396.455 38.2833 396.525 38.28 396.612 38.28C396.692 38.2867 396.795 38.29 396.922 38.29C397.442 38.29 397.812 38.1667 398.032 37.92C398.252 37.68 398.362 37.29 398.362 36.75V25.87H400.142ZM400.512 22.69C400.512 22.8633 400.475 23.0267 400.402 23.18C400.335 23.3267 400.242 23.46 400.122 23.58C400.008 23.6933 399.875 23.7833 399.722 23.85C399.568 23.9167 399.405 23.95 399.232 23.95C399.058 23.95 398.895 23.9167 398.742 23.85C398.595 23.7833 398.465 23.6933 398.352 23.58C398.238 23.46 398.148 23.3267 398.082 23.18C398.015 23.0267 397.982 22.8633 397.982 22.69C397.982 22.5167 398.015 22.3533 398.082 22.2C398.148 22.04 398.238 21.9033 398.352 21.79C398.465 21.67 398.595 21.5767 398.742 21.51C398.895 21.4433 399.058 21.41 399.232 21.41C399.405 21.41 399.568 21.4433 399.722 21.51C399.875 21.5767 400.008 21.67 400.122 21.79C400.242 21.9033 400.335 22.04 400.402 22.2C400.475 22.3533 400.512 22.5167 400.512 22.69ZM408.556 31.44C407.736 31.4667 407.036 31.5333 406.456 31.64C405.883 31.74 405.413 31.8733 405.046 32.04C404.686 32.2067 404.423 32.4033 404.256 32.63C404.096 32.8567 404.016 33.11 404.016 33.39C404.016 33.6567 404.06 33.8867 404.146 34.08C404.233 34.2733 404.35 34.4333 404.496 34.56C404.65 34.68 404.826 34.77 405.026 34.83C405.233 34.8833 405.453 34.91 405.686 34.91C406 34.91 406.286 34.88 406.546 34.82C406.806 34.7533 407.05 34.66 407.276 34.54C407.51 34.42 407.73 34.2767 407.936 34.11C408.15 33.9433 408.356 33.7533 408.556 33.54V31.44ZM402.806 27.3C403.366 26.76 403.97 26.3567 404.616 26.09C405.263 25.8233 405.98 25.69 406.766 25.69C407.333 25.69 407.836 25.7833 408.276 25.97C408.716 26.1567 409.086 26.4167 409.386 26.75C409.686 27.0833 409.913 27.4867 410.066 27.96C410.22 28.4333 410.296 28.9533 410.296 29.52V36H409.506C409.333 36 409.2 35.9733 409.106 35.92C409.013 35.86 408.94 35.7467 408.886 35.58L408.686 34.62C408.42 34.8667 408.16 35.0867 407.906 35.28C407.653 35.4667 407.386 35.6267 407.106 35.76C406.826 35.8867 406.526 35.9833 406.206 36.05C405.893 36.1233 405.543 36.16 405.156 36.16C404.763 36.16 404.393 36.1067 404.046 36C403.7 35.8867 403.396 35.72 403.136 35.5C402.883 35.28 402.68 35.0033 402.526 34.67C402.38 34.33 402.306 33.93 402.306 33.47C402.306 33.07 402.416 32.6867 402.636 32.32C402.856 31.9467 403.213 31.6167 403.706 31.33C404.2 31.0433 404.843 30.81 405.636 30.63C406.43 30.4433 407.403 30.3367 408.556 30.31V29.52C408.556 28.7333 408.386 28.14 408.046 27.74C407.706 27.3333 407.21 27.13 406.556 27.13C406.116 27.13 405.746 27.1867 405.446 27.3C405.153 27.4067 404.896 27.53 404.676 27.67C404.463 27.8033 404.276 27.9267 404.116 28.04C403.963 28.1467 403.81 28.2 403.656 28.2C403.536 28.2 403.433 28.17 403.346 28.11C403.26 28.0433 403.186 27.9633 403.126 27.87L402.806 27.3ZM414.798 21.27V29.94H415.258C415.391 29.94 415.501 29.9233 415.588 29.89C415.681 29.85 415.778 29.7733 415.878 29.66L419.078 26.23C419.171 26.1167 419.268 26.03 419.368 25.97C419.474 25.9033 419.614 25.87 419.788 25.87H421.398L417.668 29.84C417.488 30.0667 417.294 30.2433 417.088 30.37C417.208 30.45 417.314 30.5433 417.408 30.65C417.508 30.75 417.601 30.8667 417.688 31L421.648 36H420.058C419.904 36 419.771 35.9767 419.658 35.93C419.551 35.8767 419.458 35.7833 419.378 35.65L416.048 31.5C415.948 31.36 415.848 31.27 415.748 31.23C415.654 31.1833 415.508 31.16 415.308 31.16H414.798V36H413.008V21.27H414.798ZM430.071 33.56C430.398 34 430.754 34.31 431.141 34.49C431.534 34.67 431.964 34.76 432.431 34.76C433.384 34.76 434.114 34.4233 434.621 33.75C435.128 33.0767 435.381 32.0733 435.381 30.74C435.381 29.5 435.154 28.59 434.701 28.01C434.254 27.4233 433.614 27.13 432.781 27.13C432.201 27.13 431.694 27.2633 431.261 27.53C430.834 27.7967 430.438 28.1733 430.071 28.66V33.56ZM430.071 27.33C430.498 26.8367 430.978 26.4433 431.511 26.15C432.051 25.8567 432.671 25.71 433.371 25.71C433.964 25.71 434.498 25.8233 434.971 26.05C435.451 26.2767 435.858 26.6067 436.191 27.04C436.524 27.4667 436.778 27.9867 436.951 28.6C437.131 29.2133 437.221 29.9033 437.221 30.67C437.221 31.49 437.121 32.2367 436.921 32.91C436.721 33.5833 436.431 34.16 436.051 34.64C435.678 35.1133 435.221 35.4833 434.681 35.75C434.141 36.01 433.534 36.14 432.861 36.14C432.194 36.14 431.631 36.0167 431.171 35.77C430.718 35.5167 430.321 35.16 429.981 34.7L429.891 35.62C429.838 35.8733 429.684 36 429.431 36H428.281V21.27H430.071V27.33ZM447.803 25.87V36H446.743C446.489 36 446.329 35.8767 446.263 35.63L446.123 34.54C445.683 35.0267 445.189 35.42 444.643 35.72C444.096 36.0133 443.469 36.16 442.763 36.16C442.209 36.16 441.719 36.07 441.293 35.89C440.873 35.7033 440.519 35.4433 440.233 35.11C439.946 34.7767 439.729 34.3733 439.583 33.9C439.443 33.4267 439.373 32.9033 439.373 32.33V25.87H441.153V32.33C441.153 33.0967 441.326 33.69 441.673 34.11C442.026 34.53 442.563 34.74 443.283 34.74C443.809 34.74 444.299 34.6167 444.753 34.37C445.213 34.1167 445.636 33.77 446.023 33.33V25.87H447.803ZM456.115 31.44C455.295 31.4667 454.595 31.5333 454.015 31.64C453.442 31.74 452.972 31.8733 452.605 32.04C452.245 32.2067 451.982 32.4033 451.815 32.63C451.655 32.8567 451.575 33.11 451.575 33.39C451.575 33.6567 451.618 33.8867 451.705 34.08C451.792 34.2733 451.908 34.4333 452.055 34.56C452.208 34.68 452.385 34.77 452.585 34.83C452.792 34.8833 453.012 34.91 453.245 34.91C453.558 34.91 453.845 34.88 454.105 34.82C454.365 34.7533 454.608 34.66 454.835 34.54C455.068 34.42 455.288 34.2767 455.495 34.11C455.708 33.9433 455.915 33.7533 456.115 33.54V31.44ZM450.365 27.3C450.925 26.76 451.528 26.3567 452.175 26.09C452.822 25.8233 453.538 25.69 454.325 25.69C454.892 25.69 455.395 25.7833 455.835 25.97C456.275 26.1567 456.645 26.4167 456.945 26.75C457.245 27.0833 457.472 27.4867 457.625 27.96C457.778 28.4333 457.855 28.9533 457.855 29.52V36H457.065C456.892 36 456.758 35.9733 456.665 35.92C456.572 35.86 456.498 35.7467 456.445 35.58L456.245 34.62C455.978 34.8667 455.718 35.0867 455.465 35.28C455.212 35.4667 454.945 35.6267 454.665 35.76C454.385 35.8867 454.085 35.9833 453.765 36.05C453.452 36.1233 453.102 36.16 452.715 36.16C452.322 36.16 451.952 36.1067 451.605 36C451.258 35.8867 450.955 35.72 450.695 35.5C450.442 35.28 450.238 35.0033 450.085 34.67C449.938 34.33 449.865 33.93 449.865 33.47C449.865 33.07 449.975 32.6867 450.195 32.32C450.415 31.9467 450.772 31.6167 451.265 31.33C451.758 31.0433 452.402 30.81 453.195 30.63C453.988 30.4433 454.962 30.3367 456.115 30.31V29.52C456.115 28.7333 455.945 28.14 455.605 27.74C455.265 27.3333 454.768 27.13 454.115 27.13C453.675 27.13 453.305 27.1867 453.005 27.3C452.712 27.4067 452.455 27.53 452.235 27.67C452.022 27.8033 451.835 27.9267 451.675 28.04C451.522 28.1467 451.368 28.2 451.215 28.2C451.095 28.2 450.992 28.17 450.905 28.11C450.818 28.0433 450.745 27.9633 450.685 27.87L450.365 27.3ZM462.246 27.34C462.466 27.0933 462.7 26.87 462.946 26.67C463.193 26.47 463.453 26.3 463.726 26.16C464.006 26.0133 464.3 25.9033 464.606 25.83C464.92 25.75 465.256 25.71 465.616 25.71C466.17 25.71 466.656 25.8033 467.076 25.99C467.503 26.17 467.856 26.43 468.136 26.77C468.423 27.1033 468.64 27.5067 468.786 27.98C468.933 28.4533 469.006 28.9767 469.006 29.55V36H467.216V29.55C467.216 28.7833 467.04 28.19 466.686 27.77C466.34 27.3433 465.81 27.13 465.096 27.13C464.57 27.13 464.076 27.2567 463.616 27.51C463.163 27.7633 462.743 28.1067 462.356 28.54V36H460.566V25.87H461.636C461.89 25.87 462.046 25.9933 462.106 26.24L462.246 27.34ZM475.249 31.05C475.609 31.05 475.925 31 476.199 30.9C476.472 30.8 476.702 30.66 476.889 30.48C477.075 30.3 477.215 30.0867 477.309 29.84C477.402 29.5867 477.449 29.31 477.449 29.01C477.449 28.39 477.259 27.8967 476.879 27.53C476.505 27.1633 475.962 26.98 475.249 26.98C474.529 26.98 473.979 27.1633 473.599 27.53C473.225 27.8967 473.039 28.39 473.039 29.01C473.039 29.31 473.085 29.5867 473.179 29.84C473.279 30.0867 473.422 30.3 473.609 30.48C473.795 30.66 474.025 30.8 474.299 30.9C474.572 31 474.889 31.05 475.249 31.05ZM478.459 36.55C478.459 36.3033 478.389 36.1033 478.249 35.95C478.109 35.7967 477.919 35.6767 477.679 35.59C477.445 35.5033 477.172 35.4433 476.859 35.41C476.545 35.37 476.212 35.34 475.859 35.32C475.512 35.3 475.159 35.28 474.799 35.26C474.439 35.24 474.092 35.2067 473.759 35.16C473.385 35.3333 473.079 35.5533 472.839 35.82C472.605 36.08 472.489 36.3867 472.489 36.74C472.489 36.9667 472.545 37.1767 472.659 37.37C472.779 37.57 472.959 37.74 473.199 37.88C473.439 38.0267 473.739 38.14 474.099 38.22C474.465 38.3067 474.895 38.35 475.389 38.35C475.869 38.35 476.299 38.3067 476.679 38.22C477.059 38.1333 477.379 38.01 477.639 37.85C477.905 37.69 478.109 37.5 478.249 37.28C478.389 37.06 478.459 36.8167 478.459 36.55ZM480.269 26.27V26.93C480.269 27.15 480.129 27.29 479.849 27.35L478.699 27.5C478.925 27.94 479.039 28.4267 479.039 28.96C479.039 29.4533 478.942 29.9033 478.749 30.31C478.562 30.71 478.302 31.0533 477.969 31.34C477.635 31.6267 477.235 31.8467 476.769 32C476.302 32.1533 475.795 32.23 475.249 32.23C474.775 32.23 474.329 32.1733 473.909 32.06C473.695 32.1933 473.532 32.3367 473.419 32.49C473.305 32.6367 473.249 32.7867 473.249 32.94C473.249 33.18 473.345 33.3633 473.539 33.49C473.739 33.61 473.999 33.6967 474.319 33.75C474.639 33.8033 475.002 33.8367 475.409 33.85C475.822 33.8633 476.242 33.8867 476.669 33.92C477.102 33.9467 477.522 33.9967 477.929 34.07C478.342 34.1433 478.709 34.2633 479.029 34.43C479.349 34.5967 479.605 34.8267 479.799 35.12C479.999 35.4133 480.099 35.7933 480.099 36.26C480.099 36.6933 479.989 37.1133 479.769 37.52C479.555 37.9267 479.245 38.2867 478.839 38.6C478.432 38.92 477.932 39.1733 477.339 39.36C476.752 39.5533 476.089 39.65 475.349 39.65C474.609 39.65 473.962 39.5767 473.409 39.43C472.855 39.2833 472.395 39.0867 472.029 38.84C471.662 38.5933 471.385 38.3067 471.199 37.98C471.019 37.66 470.929 37.3233 470.929 36.97C470.929 36.47 471.085 36.0467 471.399 35.7C471.712 35.3533 472.142 35.0767 472.689 34.87C472.389 34.7367 472.149 34.56 471.969 34.34C471.795 34.1133 471.709 33.81 471.709 33.43C471.709 33.2833 471.735 33.1333 471.789 32.98C471.842 32.82 471.922 32.6633 472.029 32.51C472.142 32.35 472.279 32.2 472.439 32.06C472.599 31.92 472.785 31.7967 472.999 31.69C472.499 31.41 472.109 31.04 471.829 30.58C471.549 30.1133 471.409 29.5733 471.409 28.96C471.409 28.4667 471.502 28.02 471.689 27.62C471.882 27.2133 472.149 26.87 472.489 26.59C472.829 26.3033 473.232 26.0833 473.699 25.93C474.172 25.7767 474.689 25.7 475.249 25.7C475.689 25.7 476.099 25.75 476.479 25.85C476.859 25.9433 477.205 26.0833 477.519 26.27H480.269ZM483.949 21.27V36H482.169V21.27H483.949ZM492.326 31.44C491.506 31.4667 490.806 31.5333 490.226 31.64C489.652 31.74 489.182 31.8733 488.816 32.04C488.456 32.2067 488.192 32.4033 488.026 32.63C487.866 32.8567 487.786 33.11 487.786 33.39C487.786 33.6567 487.829 33.8867 487.916 34.08C488.002 34.2733 488.119 34.4333 488.266 34.56C488.419 34.68 488.596 34.77 488.796 34.83C489.002 34.8833 489.222 34.91 489.456 34.91C489.769 34.91 490.056 34.88 490.316 34.82C490.576 34.7533 490.819 34.66 491.046 34.54C491.279 34.42 491.499 34.2767 491.706 34.11C491.919 33.9433 492.126 33.7533 492.326 33.54V31.44ZM486.576 27.3C487.136 26.76 487.739 26.3567 488.386 26.09C489.032 25.8233 489.749 25.69 490.536 25.69C491.102 25.69 491.606 25.7833 492.046 25.97C492.486 26.1567 492.856 26.4167 493.156 26.75C493.456 27.0833 493.682 27.4867 493.836 27.96C493.989 28.4333 494.066 28.9533 494.066 29.52V36H493.276C493.102 36 492.969 35.9733 492.876 35.92C492.782 35.86 492.709 35.7467 492.656 35.58L492.456 34.62C492.189 34.8667 491.929 35.0867 491.676 35.28C491.422 35.4667 491.156 35.6267 490.876 35.76C490.596 35.8867 490.296 35.9833 489.976 36.05C489.662 36.1233 489.312 36.16 488.926 36.16C488.532 36.16 488.162 36.1067 487.816 36C487.469 35.8867 487.166 35.72 486.906 35.5C486.652 35.28 486.449 35.0033 486.296 34.67C486.149 34.33 486.076 33.93 486.076 33.47C486.076 33.07 486.186 32.6867 486.406 32.32C486.626 31.9467 486.982 31.6167 487.476 31.33C487.969 31.0433 488.612 30.81 489.406 30.63C490.199 30.4433 491.172 30.3367 492.326 30.31V29.52C492.326 28.7333 492.156 28.14 491.816 27.74C491.476 27.3333 490.979 27.13 490.326 27.13C489.886 27.13 489.516 27.1867 489.216 27.3C488.922 27.4067 488.666 27.53 488.446 27.67C488.232 27.8033 488.046 27.9267 487.886 28.04C487.732 28.1467 487.579 28.2 487.426 28.2C487.306 28.2 487.202 28.17 487.116 28.11C487.029 28.0433 486.956 27.9633 486.896 27.87L486.576 27.3ZM498.567 27.22C499.001 26.76 499.481 26.3933 500.007 26.12C500.534 25.8467 501.141 25.71 501.827 25.71C502.381 25.71 502.867 25.8033 503.287 25.99C503.714 26.17 504.067 26.43 504.347 26.77C504.634 27.1033 504.851 27.5067 504.997 27.98C505.144 28.4533 505.217 28.9767 505.217 29.55V36H503.427V29.55C503.427 28.7833 503.251 28.19 502.897 27.77C502.551 27.3433 502.021 27.13 501.307 27.13C500.781 27.13 500.287 27.2567 499.827 27.51C499.374 27.7633 498.954 28.1067 498.567 28.54V36H496.777V21.27H498.567V27.22ZM518.947 27.54C518.867 27.6867 518.743 27.76 518.577 27.76C518.477 27.76 518.363 27.7233 518.237 27.65C518.11 27.5767 517.953 27.4967 517.767 27.41C517.587 27.3167 517.37 27.2333 517.117 27.16C516.863 27.08 516.563 27.04 516.217 27.04C515.917 27.04 515.647 27.08 515.407 27.16C515.167 27.2333 514.96 27.3367 514.787 27.47C514.62 27.6033 514.49 27.76 514.397 27.94C514.31 28.1133 514.267 28.3033 514.267 28.51C514.267 28.77 514.34 28.9867 514.487 29.16C514.64 29.3333 514.84 29.4833 515.087 29.61C515.333 29.7367 515.613 29.85 515.927 29.95C516.24 30.0433 516.56 30.1467 516.887 30.26C517.22 30.3667 517.543 30.4867 517.857 30.62C518.17 30.7533 518.45 30.92 518.697 31.12C518.943 31.32 519.14 31.5667 519.287 31.86C519.44 32.1467 519.517 32.4933 519.517 32.9C519.517 33.3667 519.433 33.8 519.267 34.2C519.1 34.5933 518.853 34.9367 518.527 35.23C518.2 35.5167 517.8 35.7433 517.327 35.91C516.853 36.0767 516.307 36.16 515.687 36.16C514.98 36.16 514.34 36.0467 513.767 35.82C513.193 35.5867 512.707 35.29 512.307 34.93L512.727 34.25C512.78 34.1633 512.843 34.0967 512.917 34.05C512.99 34.0033 513.083 33.98 513.197 33.98C513.317 33.98 513.443 34.0267 513.577 34.12C513.71 34.2133 513.87 34.3167 514.057 34.43C514.25 34.5433 514.483 34.6467 514.757 34.74C515.03 34.8333 515.37 34.88 515.777 34.88C516.123 34.88 516.427 34.8367 516.687 34.75C516.947 34.6567 517.163 34.5333 517.337 34.38C517.51 34.2267 517.637 34.05 517.717 33.85C517.803 33.65 517.847 33.4367 517.847 33.21C517.847 32.93 517.77 32.7 517.617 32.52C517.47 32.3333 517.273 32.1767 517.027 32.05C516.78 31.9167 516.497 31.8033 516.177 31.71C515.863 31.61 515.54 31.5067 515.207 31.4C514.88 31.2933 514.557 31.1733 514.237 31.04C513.923 30.9 513.643 30.7267 513.397 30.52C513.15 30.3133 512.95 30.06 512.797 29.76C512.65 29.4533 512.577 29.0833 512.577 28.65C512.577 28.2633 512.657 27.8933 512.817 27.54C512.977 27.18 513.21 26.8667 513.517 26.6C513.823 26.3267 514.2 26.11 514.647 25.95C515.093 25.79 515.603 25.71 516.177 25.71C516.843 25.71 517.44 25.8167 517.967 26.03C518.5 26.2367 518.96 26.5233 519.347 26.89L518.947 27.54ZM527.189 31.44C526.369 31.4667 525.669 31.5333 525.089 31.64C524.516 31.74 524.046 31.8733 523.679 32.04C523.319 32.2067 523.056 32.4033 522.889 32.63C522.729 32.8567 522.649 33.11 522.649 33.39C522.649 33.6567 522.692 33.8867 522.779 34.08C522.866 34.2733 522.982 34.4333 523.129 34.56C523.282 34.68 523.459 34.77 523.659 34.83C523.866 34.8833 524.086 34.91 524.319 34.91C524.632 34.91 524.919 34.88 525.179 34.82C525.439 34.7533 525.682 34.66 525.909 34.54C526.142 34.42 526.362 34.2767 526.569 34.11C526.782 33.9433 526.989 33.7533 527.189 33.54V31.44ZM521.439 27.3C521.999 26.76 522.602 26.3567 523.249 26.09C523.896 25.8233 524.612 25.69 525.399 25.69C525.966 25.69 526.469 25.7833 526.909 25.97C527.349 26.1567 527.719 26.4167 528.019 26.75C528.319 27.0833 528.546 27.4867 528.699 27.96C528.852 28.4333 528.929 28.9533 528.929 29.52V36H528.139C527.966 36 527.832 35.9733 527.739 35.92C527.646 35.86 527.572 35.7467 527.519 35.58L527.319 34.62C527.052 34.8667 526.792 35.0867 526.539 35.28C526.286 35.4667 526.019 35.6267 525.739 35.76C525.459 35.8867 525.159 35.9833 524.839 36.05C524.526 36.1233 524.176 36.16 523.789 36.16C523.396 36.16 523.026 36.1067 522.679 36C522.332 35.8867 522.029 35.72 521.769 35.5C521.516 35.28 521.312 35.0033 521.159 34.67C521.012 34.33 520.939 33.93 520.939 33.47C520.939 33.07 521.049 32.6867 521.269 32.32C521.489 31.9467 521.846 31.6167 522.339 31.33C522.832 31.0433 523.476 30.81 524.269 30.63C525.062 30.4433 526.036 30.3367 527.189 30.31V29.52C527.189 28.7333 527.019 28.14 526.679 27.74C526.339 27.3333 525.842 27.13 525.189 27.13C524.749 27.13 524.379 27.1867 524.079 27.3C523.786 27.4067 523.529 27.53 523.309 27.67C523.096 27.8033 522.909 27.9267 522.749 28.04C522.596 28.1467 522.442 28.2 522.289 28.2C522.169 28.2 522.066 28.17 521.979 28.11C521.892 28.0433 521.819 27.9633 521.759 27.87L521.439 27.3ZM531.64 36V25.87H532.71C532.964 25.87 533.12 25.9933 533.18 26.24L533.31 27.28C533.684 26.82 534.104 26.4433 534.57 26.15C535.037 25.8567 535.577 25.71 536.19 25.71C536.87 25.71 537.42 25.9 537.84 26.28C538.267 26.66 538.574 27.1733 538.76 27.82C538.907 27.4533 539.094 27.1367 539.32 26.87C539.554 26.6033 539.814 26.3833 540.1 26.21C540.387 26.0367 540.69 25.91 541.01 25.83C541.337 25.75 541.667 25.71 542 25.71C542.534 25.71 543.007 25.7967 543.42 25.97C543.84 26.1367 544.194 26.3833 544.48 26.71C544.774 27.0367 544.997 27.44 545.15 27.92C545.304 28.3933 545.38 28.9367 545.38 29.55V36H543.59V29.55C543.59 28.7567 543.417 28.1567 543.07 27.75C542.724 27.3367 542.224 27.13 541.57 27.13C541.277 27.13 540.997 27.1833 540.73 27.29C540.47 27.39 540.24 27.54 540.04 27.74C539.84 27.94 539.68 28.1933 539.56 28.5C539.447 28.8 539.39 29.15 539.39 29.55V36H537.6V29.55C537.6 28.7367 537.437 28.13 537.11 27.73C536.784 27.33 536.307 27.13 535.68 27.13C535.24 27.13 534.834 27.25 534.46 27.49C534.087 27.7233 533.744 28.0433 533.43 28.45V36H531.64ZM549.876 33.56C550.202 34 550.559 34.31 550.946 34.49C551.332 34.67 551.766 34.76 552.246 34.76C553.192 34.76 553.919 34.4233 554.426 33.75C554.932 33.0767 555.186 32.1167 555.186 30.87C555.186 30.21 555.126 29.6433 555.006 29.17C554.892 28.6967 554.726 28.31 554.506 28.01C554.286 27.7033 554.016 27.48 553.696 27.34C553.376 27.2 553.012 27.13 552.606 27.13C552.026 27.13 551.516 27.2633 551.076 27.53C550.642 27.7967 550.242 28.1733 549.876 28.66V33.56ZM549.786 27.44C550.212 26.9133 550.706 26.49 551.266 26.17C551.826 25.85 552.466 25.69 553.186 25.69C553.772 25.69 554.302 25.8033 554.776 26.03C555.249 26.25 555.652 26.58 555.986 27.02C556.319 27.4533 556.576 27.9933 556.756 28.64C556.936 29.2867 557.026 30.03 557.026 30.87C557.026 31.6167 556.926 32.3133 556.726 32.96C556.526 33.6 556.236 34.1567 555.856 34.63C555.482 35.0967 555.022 35.4667 554.476 35.74C553.936 36.0067 553.326 36.14 552.646 36.14C552.026 36.14 551.492 36.0367 551.046 35.83C550.606 35.6167 550.216 35.3233 549.876 34.95V39.43H548.086V25.87H549.156C549.409 25.87 549.566 25.9933 549.626 26.24L549.786 27.44ZM564.787 31.44C563.967 31.4667 563.267 31.5333 562.687 31.64C562.113 31.74 561.643 31.8733 561.277 32.04C560.917 32.2067 560.653 32.4033 560.487 32.63C560.327 32.8567 560.247 33.11 560.247 33.39C560.247 33.6567 560.29 33.8867 560.377 34.08C560.463 34.2733 560.58 34.4333 560.727 34.56C560.88 34.68 561.057 34.77 561.257 34.83C561.463 34.8833 561.683 34.91 561.917 34.91C562.23 34.91 562.517 34.88 562.777 34.82C563.037 34.7533 563.28 34.66 563.507 34.54C563.74 34.42 563.96 34.2767 564.167 34.11C564.38 33.9433 564.587 33.7533 564.787 33.54V31.44ZM559.037 27.3C559.597 26.76 560.2 26.3567 560.847 26.09C561.493 25.8233 562.21 25.69 562.997 25.69C563.563 25.69 564.067 25.7833 564.507 25.97C564.947 26.1567 565.317 26.4167 565.617 26.75C565.917 27.0833 566.143 27.4867 566.297 27.96C566.45 28.4333 566.527 28.9533 566.527 29.52V36H565.737C565.563 36 565.43 35.9733 565.337 35.92C565.243 35.86 565.17 35.7467 565.117 35.58L564.917 34.62C564.65 34.8667 564.39 35.0867 564.137 35.28C563.883 35.4667 563.617 35.6267 563.337 35.76C563.057 35.8867 562.757 35.9833 562.437 36.05C562.123 36.1233 561.773 36.16 561.387 36.16C560.993 36.16 560.623 36.1067 560.277 36C559.93 35.8867 559.627 35.72 559.367 35.5C559.113 35.28 558.91 35.0033 558.757 34.67C558.61 34.33 558.537 33.93 558.537 33.47C558.537 33.07 558.647 32.6867 558.867 32.32C559.087 31.9467 559.443 31.6167 559.937 31.33C560.43 31.0433 561.073 30.81 561.867 30.63C562.66 30.4433 563.633 30.3367 564.787 30.31V29.52C564.787 28.7333 564.617 28.14 564.277 27.74C563.937 27.3333 563.44 27.13 562.787 27.13C562.347 27.13 561.977 27.1867 561.677 27.3C561.383 27.4067 561.127 27.53 560.907 27.67C560.693 27.8033 560.507 27.9267 560.347 28.04C560.193 28.1467 560.04 28.2 559.887 28.2C559.767 28.2 559.663 28.17 559.577 28.11C559.49 28.0433 559.417 27.9633 559.357 27.87L559.037 27.3ZM571.028 27.22C571.461 26.76 571.941 26.3933 572.468 26.12C572.995 25.8467 573.601 25.71 574.288 25.71C574.841 25.71 575.328 25.8033 575.748 25.99C576.175 26.17 576.528 26.43 576.808 26.77C577.095 27.1033 577.311 27.5067 577.458 27.98C577.605 28.4533 577.678 28.9767 577.678 29.55V36H575.888V29.55C575.888 28.7833 575.711 28.19 575.358 27.77C575.011 27.3433 574.481 27.13 573.768 27.13C573.241 27.13 572.748 27.2567 572.288 27.51C571.835 27.7633 571.415 28.1067 571.028 28.54V36H569.238V21.27H571.028V27.22ZM317.2 57.56C317.527 58 317.883 58.31 318.27 58.49C318.657 58.67 319.09 58.76 319.57 58.76C320.517 58.76 321.243 58.4233 321.75 57.75C322.257 57.0767 322.51 56.1167 322.51 54.87C322.51 54.21 322.45 53.6433 322.33 53.17C322.217 52.6967 322.05 52.31 321.83 52.01C321.61 51.7033 321.34 51.48 321.02 51.34C320.7 51.2 320.337 51.13 319.93 51.13C319.35 51.13 318.84 51.2633 318.4 51.53C317.967 51.7967 317.567 52.1733 317.2 52.66V57.56ZM317.11 51.44C317.537 50.9133 318.03 50.49 318.59 50.17C319.15 49.85 319.79 49.69 320.51 49.69C321.097 49.69 321.627 49.8033 322.1 50.03C322.573 50.25 322.977 50.58 323.31 51.02C323.643 51.4533 323.9 51.9933 324.08 52.64C324.26 53.2867 324.35 54.03 324.35 54.87C324.35 55.6167 324.25 56.3133 324.05 56.96C323.85 57.6 323.56 58.1567 323.18 58.63C322.807 59.0967 322.347 59.4667 321.8 59.74C321.26 60.0067 320.65 60.14 319.97 60.14C319.35 60.14 318.817 60.0367 318.37 59.83C317.93 59.6167 317.54 59.3233 317.2 58.95V63.43H315.41V49.87H316.48C316.733 49.87 316.89 49.9933 316.95 50.24L317.11 51.44ZM332.111 55.44C331.291 55.4667 330.591 55.5333 330.011 55.64C329.438 55.74 328.968 55.8733 328.601 56.04C328.241 56.2067 327.978 56.4033 327.811 56.63C327.651 56.8567 327.571 57.11 327.571 57.39C327.571 57.6567 327.614 57.8867 327.701 58.08C327.788 58.2733 327.904 58.4333 328.051 58.56C328.204 58.68 328.381 58.77 328.581 58.83C328.788 58.8833 329.008 58.91 329.241 58.91C329.554 58.91 329.841 58.88 330.101 58.82C330.361 58.7533 330.604 58.66 330.831 58.54C331.064 58.42 331.284 58.2767 331.491 58.11C331.704 57.9433 331.911 57.7533 332.111 57.54V55.44ZM326.361 51.3C326.921 50.76 327.524 50.3567 328.171 50.09C328.818 49.8233 329.534 49.69 330.321 49.69C330.888 49.69 331.391 49.7833 331.831 49.97C332.271 50.1567 332.641 50.4167 332.941 50.75C333.241 51.0833 333.468 51.4867 333.621 51.96C333.774 52.4333 333.851 52.9533 333.851 53.52V60H333.061C332.888 60 332.754 59.9733 332.661 59.92C332.568 59.86 332.494 59.7467 332.441 59.58L332.241 58.62C331.974 58.8667 331.714 59.0867 331.461 59.28C331.208 59.4667 330.941 59.6267 330.661 59.76C330.381 59.8867 330.081 59.9833 329.761 60.05C329.448 60.1233 329.098 60.16 328.711 60.16C328.318 60.16 327.948 60.1067 327.601 60C327.254 59.8867 326.951 59.72 326.691 59.5C326.438 59.28 326.234 59.0033 326.081 58.67C325.934 58.33 325.861 57.93 325.861 57.47C325.861 57.07 325.971 56.6867 326.191 56.32C326.411 55.9467 326.768 55.6167 327.261 55.33C327.754 55.0433 328.398 54.81 329.191 54.63C329.984 54.4433 330.958 54.3367 332.111 54.31V53.52C332.111 52.7333 331.941 52.14 331.601 51.74C331.261 51.3333 330.764 51.13 330.111 51.13C329.671 51.13 329.301 51.1867 329.001 51.3C328.708 51.4067 328.451 51.53 328.231 51.67C328.018 51.8033 327.831 51.9267 327.671 52.04C327.518 52.1467 327.364 52.2 327.211 52.2C327.091 52.2 326.988 52.17 326.901 52.11C326.814 52.0433 326.741 51.9633 326.681 51.87L326.361 51.3ZM343.162 52.28C342.829 51.8333 342.469 51.5233 342.082 51.35C341.696 51.17 341.262 51.08 340.782 51.08C339.842 51.08 339.119 51.4167 338.612 52.09C338.106 52.7633 337.852 53.7233 337.852 54.97C337.852 55.63 337.909 56.1967 338.022 56.67C338.136 57.1367 338.302 57.5233 338.522 57.83C338.742 58.13 339.012 58.35 339.332 58.49C339.652 58.63 340.016 58.7 340.422 58.7C341.009 58.7 341.519 58.5667 341.952 58.3C342.392 58.0333 342.796 57.6567 343.162 57.17V52.28ZM344.942 45.27V60H343.882C343.629 60 343.469 59.8767 343.402 59.63L343.242 58.4C342.809 58.92 342.316 59.34 341.762 59.66C341.209 59.98 340.569 60.14 339.842 60.14C339.262 60.14 338.736 60.03 338.262 59.81C337.789 59.5833 337.386 59.2533 337.052 58.82C336.719 58.3867 336.462 57.8467 336.282 57.2C336.102 56.5533 336.012 55.81 336.012 54.97C336.012 54.2233 336.112 53.53 336.312 52.89C336.512 52.2433 336.799 51.6833 337.172 51.21C337.546 50.7367 338.002 50.3667 338.542 50.1C339.089 49.8267 339.702 49.69 340.382 49.69C341.002 49.69 341.532 49.7967 341.972 50.01C342.419 50.2167 342.816 50.5067 343.162 50.88V45.27H344.942ZM353.244 55.44C352.424 55.4667 351.724 55.5333 351.144 55.64C350.57 55.74 350.1 55.8733 349.734 56.04C349.374 56.2067 349.11 56.4033 348.944 56.63C348.784 56.8567 348.704 57.11 348.704 57.39C348.704 57.6567 348.747 57.8867 348.834 58.08C348.92 58.2733 349.037 58.4333 349.184 58.56C349.337 58.68 349.514 58.77 349.714 58.83C349.92 58.8833 350.14 58.91 350.374 58.91C350.687 58.91 350.974 58.88 351.234 58.82C351.494 58.7533 351.737 58.66 351.964 58.54C352.197 58.42 352.417 58.2767 352.624 58.11C352.837 57.9433 353.044 57.7533 353.244 57.54V55.44ZM347.494 51.3C348.054 50.76 348.657 50.3567 349.304 50.09C349.95 49.8233 350.667 49.69 351.454 49.69C352.02 49.69 352.524 49.7833 352.964 49.97C353.404 50.1567 353.774 50.4167 354.074 50.75C354.374 51.0833 354.6 51.4867 354.754 51.96C354.907 52.4333 354.984 52.9533 354.984 53.52V60H354.194C354.02 60 353.887 59.9733 353.794 59.92C353.7 59.86 353.627 59.7467 353.574 59.58L353.374 58.62C353.107 58.8667 352.847 59.0867 352.594 59.28C352.34 59.4667 352.074 59.6267 351.794 59.76C351.514 59.8867 351.214 59.9833 350.894 60.05C350.58 60.1233 350.23 60.16 349.844 60.16C349.45 60.16 349.08 60.1067 348.734 60C348.387 59.8867 348.084 59.72 347.824 59.5C347.57 59.28 347.367 59.0033 347.214 58.67C347.067 58.33 346.994 57.93 346.994 57.47C346.994 57.07 347.104 56.6867 347.324 56.32C347.544 55.9467 347.9 55.6167 348.394 55.33C348.887 55.0433 349.53 54.81 350.324 54.63C351.117 54.4433 352.09 54.3367 353.244 54.31V53.52C353.244 52.7333 353.074 52.14 352.734 51.74C352.394 51.3333 351.897 51.13 351.244 51.13C350.804 51.13 350.434 51.1867 350.134 51.3C349.84 51.4067 349.584 51.53 349.364 51.67C349.15 51.8033 348.964 51.9267 348.804 52.04C348.65 52.1467 348.497 52.2 348.344 52.2C348.224 52.2 348.12 52.17 348.034 52.11C347.947 52.0433 347.874 51.9633 347.814 51.87L347.494 51.3ZM365.922 60.16C365.122 60.16 364.506 59.9367 364.072 59.49C363.646 59.0433 363.432 58.4 363.432 57.56V51.36H362.212C362.106 51.36 362.016 51.33 361.942 51.27C361.869 51.2033 361.832 51.1033 361.832 50.97V50.26L363.492 50.05L363.902 46.92C363.922 46.82 363.966 46.74 364.032 46.68C364.106 46.6133 364.199 46.58 364.312 46.58H365.212V50.07H368.142V51.36H365.212V57.44C365.212 57.8667 365.316 58.1833 365.522 58.39C365.729 58.5967 365.996 58.7 366.322 58.7C366.509 58.7 366.669 58.6767 366.802 58.63C366.942 58.5767 367.062 58.52 367.162 58.46C367.262 58.4 367.346 58.3467 367.412 58.3C367.486 58.2467 367.549 58.22 367.602 58.22C367.696 58.22 367.779 58.2767 367.852 58.39L368.372 59.24C368.066 59.5267 367.696 59.7533 367.262 59.92C366.829 60.08 366.382 60.16 365.922 60.16ZM376.702 53.83C376.702 53.4167 376.642 53.04 376.522 52.7C376.408 52.3533 376.238 52.0567 376.012 51.81C375.792 51.5567 375.522 51.3633 375.202 51.23C374.882 51.09 374.518 51.02 374.112 51.02C373.258 51.02 372.582 51.27 372.082 51.77C371.588 52.2633 371.282 52.95 371.162 53.83H376.702ZM378.142 58.58C377.922 58.8467 377.658 59.08 377.352 59.28C377.045 59.4733 376.715 59.6333 376.362 59.76C376.015 59.8867 375.655 59.98 375.282 60.04C374.908 60.1067 374.538 60.14 374.172 60.14C373.472 60.14 372.825 60.0233 372.232 59.79C371.645 59.55 371.135 59.2033 370.702 58.75C370.275 58.29 369.942 57.7233 369.702 57.05C369.462 56.3767 369.342 55.6033 369.342 54.73C369.342 54.0233 369.448 53.3633 369.662 52.75C369.882 52.1367 370.195 51.6067 370.602 51.16C371.008 50.7067 371.505 50.3533 372.092 50.1C372.678 49.84 373.338 49.71 374.072 49.71C374.678 49.71 375.238 49.8133 375.752 50.02C376.272 50.22 376.718 50.5133 377.092 50.9C377.472 51.28 377.768 51.7533 377.982 52.32C378.195 52.88 378.302 53.52 378.302 54.24C378.302 54.52 378.272 54.7067 378.212 54.8C378.152 54.8933 378.038 54.94 377.872 54.94H371.102C371.122 55.58 371.208 56.1367 371.362 56.61C371.522 57.0833 371.742 57.48 372.022 57.8C372.302 58.1133 372.635 58.35 373.022 58.51C373.408 58.6633 373.842 58.74 374.322 58.74C374.768 58.74 375.152 58.69 375.472 58.59C375.798 58.4833 376.078 58.37 376.312 58.25C376.545 58.13 376.738 58.02 376.892 57.92C377.052 57.8133 377.188 57.76 377.302 57.76C377.448 57.76 377.562 57.8167 377.642 57.93L378.142 58.58ZM380.488 60V49.87H381.558C381.811 49.87 381.968 49.9933 382.028 50.24L382.158 51.28C382.531 50.82 382.951 50.4433 383.418 50.15C383.885 49.8567 384.425 49.71 385.038 49.71C385.718 49.71 386.268 49.9 386.688 50.28C387.115 50.66 387.421 51.1733 387.608 51.82C387.755 51.4533 387.941 51.1367 388.168 50.87C388.401 50.6033 388.661 50.3833 388.948 50.21C389.235 50.0367 389.538 49.91 389.858 49.83C390.185 49.75 390.515 49.71 390.848 49.71C391.381 49.71 391.855 49.7967 392.268 49.97C392.688 50.1367 393.041 50.3833 393.328 50.71C393.621 51.0367 393.845 51.44 393.998 51.92C394.151 52.3933 394.228 52.9367 394.228 53.55V60H392.438V53.55C392.438 52.7567 392.265 52.1567 391.918 51.75C391.571 51.3367 391.071 51.13 390.418 51.13C390.125 51.13 389.845 51.1833 389.578 51.29C389.318 51.39 389.088 51.54 388.888 51.74C388.688 51.94 388.528 52.1933 388.408 52.5C388.295 52.8 388.238 53.15 388.238 53.55V60H386.448V53.55C386.448 52.7367 386.285 52.13 385.958 51.73C385.631 51.33 385.155 51.13 384.528 51.13C384.088 51.13 383.681 51.25 383.308 51.49C382.935 51.7233 382.591 52.0433 382.278 52.45V60H380.488ZM398.723 57.56C399.05 58 399.407 58.31 399.793 58.49C400.18 58.67 400.613 58.76 401.093 58.76C402.04 58.76 402.767 58.4233 403.273 57.75C403.78 57.0767 404.033 56.1167 404.033 54.87C404.033 54.21 403.973 53.6433 403.853 53.17C403.74 52.6967 403.573 52.31 403.353 52.01C403.133 51.7033 402.863 51.48 402.543 51.34C402.223 51.2 401.86 51.13 401.453 51.13C400.873 51.13 400.363 51.2633 399.923 51.53C399.49 51.7967 399.09 52.1733 398.723 52.66V57.56ZM398.633 51.44C399.06 50.9133 399.553 50.49 400.113 50.17C400.673 49.85 401.313 49.69 402.033 49.69C402.62 49.69 403.15 49.8033 403.623 50.03C404.097 50.25 404.5 50.58 404.833 51.02C405.167 51.4533 405.423 51.9933 405.603 52.64C405.783 53.2867 405.873 54.03 405.873 54.87C405.873 55.6167 405.773 56.3133 405.573 56.96C405.373 57.6 405.083 58.1567 404.703 58.63C404.33 59.0967 403.87 59.4667 403.323 59.74C402.783 60.0067 402.173 60.14 401.493 60.14C400.873 60.14 400.34 60.0367 399.893 59.83C399.453 59.6167 399.063 59.3233 398.723 58.95V63.43H396.933V49.87H398.003C398.257 49.87 398.413 49.9933 398.473 50.24L398.633 51.44ZM413.634 55.44C412.814 55.4667 412.114 55.5333 411.534 55.64C410.961 55.74 410.491 55.8733 410.124 56.04C409.764 56.2067 409.501 56.4033 409.334 56.63C409.174 56.8567 409.094 57.11 409.094 57.39C409.094 57.6567 409.138 57.8867 409.224 58.08C409.311 58.2733 409.428 58.4333 409.574 58.56C409.728 58.68 409.904 58.77 410.104 58.83C410.311 58.8833 410.531 58.91 410.764 58.91C411.078 58.91 411.364 58.88 411.624 58.82C411.884 58.7533 412.128 58.66 412.354 58.54C412.588 58.42 412.808 58.2767 413.014 58.11C413.228 57.9433 413.434 57.7533 413.634 57.54V55.44ZM407.884 51.3C408.444 50.76 409.048 50.3567 409.694 50.09C410.341 49.8233 411.058 49.69 411.844 49.69C412.411 49.69 412.914 49.7833 413.354 49.97C413.794 50.1567 414.164 50.4167 414.464 50.75C414.764 51.0833 414.991 51.4867 415.144 51.96C415.298 52.4333 415.374 52.9533 415.374 53.52V60H414.584C414.411 60 414.278 59.9733 414.184 59.92C414.091 59.86 414.018 59.7467 413.964 59.58L413.764 58.62C413.498 58.8667 413.238 59.0867 412.984 59.28C412.731 59.4667 412.464 59.6267 412.184 59.76C411.904 59.8867 411.604 59.9833 411.284 60.05C410.971 60.1233 410.621 60.16 410.234 60.16C409.841 60.16 409.471 60.1067 409.124 60C408.778 59.8867 408.474 59.72 408.214 59.5C407.961 59.28 407.758 59.0033 407.604 58.67C407.458 58.33 407.384 57.93 407.384 57.47C407.384 57.07 407.494 56.6867 407.714 56.32C407.934 55.9467 408.291 55.6167 408.784 55.33C409.278 55.0433 409.921 54.81 410.714 54.63C411.508 54.4433 412.481 54.3367 413.634 54.31V53.52C413.634 52.7333 413.464 52.14 413.124 51.74C412.784 51.3333 412.288 51.13 411.634 51.13C411.194 51.13 410.824 51.1867 410.524 51.3C410.231 51.4067 409.974 51.53 409.754 51.67C409.541 51.8033 409.354 51.9267 409.194 52.04C409.041 52.1467 408.888 52.2 408.734 52.2C408.614 52.2 408.511 52.17 408.424 52.11C408.338 52.0433 408.264 51.9633 408.204 51.87L407.884 51.3ZM421.059 60.16C420.259 60.16 419.642 59.9367 419.209 59.49C418.782 59.0433 418.569 58.4 418.569 57.56V51.36H417.349C417.242 51.36 417.152 51.33 417.079 51.27C417.006 51.2033 416.969 51.1033 416.969 50.97V50.26L418.629 50.05L419.039 46.92C419.059 46.82 419.102 46.74 419.169 46.68C419.242 46.6133 419.336 46.58 419.449 46.58H420.349V50.07H423.279V51.36H420.349V57.44C420.349 57.8667 420.452 58.1833 420.659 58.39C420.866 58.5967 421.132 58.7 421.459 58.7C421.646 58.7 421.806 58.6767 421.939 58.63C422.079 58.5767 422.199 58.52 422.299 58.46C422.399 58.4 422.482 58.3467 422.549 58.3C422.622 58.2467 422.686 58.22 422.739 58.22C422.832 58.22 422.916 58.2767 422.989 58.39L423.509 59.24C423.202 59.5267 422.832 59.7533 422.399 59.92C421.966 60.08 421.519 60.16 421.059 60.16ZM426.797 51.34C427.017 51.0933 427.25 50.87 427.497 50.67C427.744 50.47 428.004 50.3 428.277 50.16C428.557 50.0133 428.85 49.9033 429.157 49.83C429.47 49.75 429.807 49.71 430.167 49.71C430.72 49.71 431.207 49.8033 431.627 49.99C432.054 50.17 432.407 50.43 432.687 50.77C432.974 51.1033 433.19 51.5067 433.337 51.98C433.484 52.4533 433.557 52.9767 433.557 53.55V60H431.767V53.55C431.767 52.7833 431.59 52.19 431.237 51.77C430.89 51.3433 430.36 51.13 429.647 51.13C429.12 51.13 428.627 51.2567 428.167 51.51C427.714 51.7633 427.294 52.1067 426.907 52.54V60H425.117V49.87H426.187C426.44 49.87 426.597 49.9933 426.657 50.24L426.797 51.34ZM444.755 49.87L439.105 62.99C439.045 63.1233 438.969 63.23 438.875 63.31C438.789 63.39 438.652 63.43 438.465 63.43H437.145L438.995 59.41L434.815 49.87H436.355C436.509 49.87 436.629 49.91 436.715 49.99C436.809 50.0633 436.872 50.1467 436.905 50.24L439.615 56.62C439.722 56.9 439.812 57.1933 439.885 57.5C439.979 57.1867 440.079 56.89 440.185 56.61L442.815 50.24C442.855 50.1333 442.922 50.0467 443.015 49.98C443.115 49.9067 443.225 49.87 443.345 49.87H444.755ZM451.623 55.44C450.803 55.4667 450.103 55.5333 449.523 55.64C448.949 55.74 448.479 55.8733 448.113 56.04C447.753 56.2067 447.489 56.4033 447.323 56.63C447.163 56.8567 447.083 57.11 447.083 57.39C447.083 57.6567 447.126 57.8867 447.213 58.08C447.299 58.2733 447.416 58.4333 447.563 58.56C447.716 58.68 447.893 58.77 448.093 58.83C448.299 58.8833 448.519 58.91 448.753 58.91C449.066 58.91 449.353 58.88 449.613 58.82C449.873 58.7533 450.116 58.66 450.343 58.54C450.576 58.42 450.796 58.2767 451.003 58.11C451.216 57.9433 451.423 57.7533 451.623 57.54V55.44ZM445.873 51.3C446.433 50.76 447.036 50.3567 447.683 50.09C448.329 49.8233 449.046 49.69 449.833 49.69C450.399 49.69 450.903 49.7833 451.343 49.97C451.783 50.1567 452.153 50.4167 452.453 50.75C452.753 51.0833 452.979 51.4867 453.133 51.96C453.286 52.4333 453.363 52.9533 453.363 53.52V60H452.573C452.399 60 452.266 59.9733 452.173 59.92C452.079 59.86 452.006 59.7467 451.953 59.58L451.753 58.62C451.486 58.8667 451.226 59.0867 450.973 59.28C450.719 59.4667 450.453 59.6267 450.173 59.76C449.893 59.8867 449.593 59.9833 449.273 60.05C448.959 60.1233 448.609 60.16 448.223 60.16C447.829 60.16 447.459 60.1067 447.113 60C446.766 59.8867 446.463 59.72 446.203 59.5C445.949 59.28 445.746 59.0033 445.593 58.67C445.446 58.33 445.373 57.93 445.373 57.47C445.373 57.07 445.483 56.6867 445.703 56.32C445.923 55.9467 446.279 55.6167 446.773 55.33C447.266 55.0433 447.909 54.81 448.703 54.63C449.496 54.4433 450.469 54.3367 451.623 54.31V53.52C451.623 52.7333 451.453 52.14 451.113 51.74C450.773 51.3333 450.276 51.13 449.623 51.13C449.183 51.13 448.813 51.1867 448.513 51.3C448.219 51.4067 447.963 51.53 447.743 51.67C447.529 51.8033 447.343 51.9267 447.183 52.04C447.029 52.1467 446.876 52.2 446.723 52.2C446.603 52.2 446.499 52.17 446.413 52.11C446.326 52.0433 446.253 51.9633 446.193 51.87L445.873 51.3ZM456.992 44.71C457.272 45.1833 457.462 45.6833 457.562 46.21C457.662 46.7367 457.672 47.2567 457.592 47.77C457.512 48.2833 457.345 48.7767 457.092 49.25C456.838 49.7233 456.502 50.1433 456.082 50.51L455.542 50.16C455.442 50.1 455.395 50.0233 455.402 49.93C455.415 49.83 455.448 49.75 455.502 49.69C455.675 49.4767 455.822 49.22 455.942 48.92C456.068 48.6133 456.148 48.2867 456.182 47.94C456.222 47.5867 456.205 47.2233 456.132 46.85C456.065 46.4767 455.928 46.1167 455.722 45.77C455.635 45.63 455.608 45.5067 455.642 45.4C455.682 45.2867 455.765 45.2033 455.892 45.15L456.992 44.71ZM460.032 44.71C460.312 45.1833 460.502 45.6833 460.602 46.21C460.702 46.7367 460.712 47.2567 460.632 47.77C460.552 48.2833 460.385 48.7767 460.132 49.25C459.878 49.7233 459.542 50.1433 459.122 50.51L458.582 50.16C458.482 50.1 458.435 50.0233 458.442 49.93C458.455 49.83 458.488 49.75 458.542 49.69C458.715 49.4767 458.862 49.22 458.982 48.92C459.108 48.6133 459.188 48.2867 459.222 47.94C459.262 47.5867 459.245 47.2233 459.172 46.85C459.105 46.4767 458.968 46.1167 458.762 45.77C458.675 45.63 458.648 45.5067 458.682 45.4C458.722 45.2867 458.805 45.2033 458.932 45.15L460.032 44.71Z" fill="white"/>
</svg>
